<?xml version="1.0" encoding="UTF-8"?>
<svg width="48px" height="24px" viewBox="0 0 48 24" version="1.1" xmlns="http://www.w3.org/2000/svg" xmlns:xlink="http://www.w3.org/1999/xlink">
    <title>AirTV Mini@3x</title>
    <g id="High-Fidelity-" stroke="none" stroke-width="1" fill="none" fill-rule="evenodd">
        <g id="Icons---Dark" transform="translate(-158.000000, -407.000000)" fill="#171725" fill-rule="nonzero">
            <g id="AirTV-Mini" transform="translate(140.119952, 402.330166)">
                <path d="M63.0769899,21.5362569 L63.0510131,20.9481017 C63.0482702,20.8707248 63.0482702,20.775195 63.0455273,20.6685464 L63.037944,20.6685464 C63.0195505,20.7568151 62.9985755,20.8745823 62.9777618,20.9662546 L62.8496526,21.5215077 L62.70315,21.5215077 L62.5750409,20.9517323 C62.5619718,20.8745823 62.541158,20.7568151 62.5255074,20.6685464 L62.5176015,20.6685464 C62.5176015,20.7604457 62.5150199,20.8559755 62.5124384,20.9481017 L62.4863002,21.5362569 L62.3504465,21.5362569 L62.4025614,20.5362569 L62.6144094,20.5362569 L62.7371941,21.0252517 C62.7528447,21.1024017 62.7659138,21.1759211 62.7841459,21.278939 L62.7868888,21.278939 C62.805121,21.1868128 62.8209329,21.1024017 62.8365835,21.0288823 L62.9593683,20.5362569 L63.1633103,20.5362569 L63.2181681,21.5362569 L63.0769899,21.5362569 Z M62.3084963,20.5362569 L62.3084963,20.7016756 L62.081159,20.7016756 L62.081159,21.5362569 L61.9399809,21.5362569 L61.9399809,20.7016756 L61.7126436,20.7016756 L61.7126436,20.5362569 L62.3084963,20.5362569 L62.3084963,20.5362569 Z" id="Fill-1"></path>
                <g id="Group-5" transform="translate(18.627310, 5.148705)">
                    <path d="M7.54520948,13.4118205 L7.54520948,12.0001008 C7.05003696,11.3412553 6.10696644,10.9883254 5.14017799,10.9883254 C3.96121884,10.9883254 2.99459174,11.6236637 2.99459174,12.7059606 C2.99459174,13.7884186 3.96121884,14.4000887 5.14017799,14.4000887 C6.10696644,14.4000887 7.05003696,14.070666 7.54520948,13.4118205 Z M7.54520948,16.1412312 L7.54520948,14.9412372 C6.76719646,15.882491 5.42317979,16.4236395 3.93766225,16.4236395 C2.12202966,16.4236395 0,15.2001384 0,12.6589463 C0,9.97654996 2.12202966,8.98828171 3.93766225,8.98828171 C5.47029299,8.98828171 6.79075308,9.48241584 7.54520948,10.3764943 L7.54520948,8.94126734 C7.54520948,7.78828777 6.55502577,7.03541348 5.04595161,7.03541348 C3.84327452,7.03541348 2.71158991,7.50587939 1.7685194,8.37645064 L0.589398902,6.28237824 C1.98052875,5.03536987 3.77260474,4.49422137 5.56468072,4.49422137 C8.18188294,4.49422137 10.5633578,5.529504 10.5633578,8.80006318 L10.5633578,16.1412312 L7.54520948,16.1412312 L7.54520948,16.1412312 Z" id="Fill-2"></path>
                    <path d="M12.4043218,16.1412312 L15.3989136,16.1412312 L15.3989136,4.77646871 L12.4043218,4.77646871 L12.4043218,16.1412312 Z M12.12132,1.76464967 C12.12132,0.776542459 12.9228896,0 13.889678,0 C14.8800231,0 15.681754,0.776542459 15.681754,1.76464967 C15.681754,2.75291789 14.8800231,3.55296754 13.889678,3.55296754 C12.9228896,3.55296754 12.12132,2.75291789 12.12132,1.76464967 L12.12132,1.76464967 Z" id="Fill-4"></path>
                </g>
                <path d="M35.890421,21.2899362 L35.890421,9.92517373 L38.8848514,9.92517373 L38.8848514,11.4545905 C39.5378209,10.481779 41.1583855,9.92517373 42.5730719,9.92517373 L42.5730719,12.5370485 C41.567883,12.5370485 39.8066242,12.5695721 38.8848514,14.0806339 L38.8848514,21.2899362 L35.890421,21.2899362" id="Fill-6"></path>
                <path d="M46.325831,18.4428285 L46.325831,12.5370485 L44.4395287,12.5370485 L44.4395287,9.92517373 L46.325831,9.92517373 L46.325831,6.8193259 L49.3204228,6.8193259 L49.3204228,9.92517373 L51.6310665,9.92517373 L51.6310665,12.5370485 L49.3204228,12.5370485 L49.3204228,17.6429399 C49.3204228,18.3723069 49.697651,18.9134554 50.357881,18.9134554 C50.8059404,18.9134554 51.2302817,18.7487441 51.3953392,18.5605255 L52.0320127,20.8429775 C51.5839533,21.2429218 50.7823837,21.5723445 49.5325935,21.5723445 C47.4341204,21.5723445 46.325831,20.4900476 46.325831,18.4428285" id="Fill-7"></path>
                <polyline id="Fill-8" points="57.4227618 21.2899362 52.8482648 9.92517373 56.0550273 9.92517373 59.0260624 17.8311585 62.0206541 9.92517373 65.2272552 9.92517373 60.6529195 21.2899362 57.4227618 21.2899362"></polyline>
                <path d="M53.4186248,25.9139302 C53.4186248,25.6228274 53.2890635,25.4157709 52.9520106,25.4157709 C52.6602961,25.4157709 52.4203738,25.6097857 52.3037203,25.7780393 L52.3037203,27.8869244 L51.4740764,27.8869244 L51.4740764,25.9139302 C51.4740764,25.6228274 51.3443537,25.4157709 51.0073008,25.4157709 C50.7222015,25.4157709 50.4821178,25.6097857 50.3591718,25.7844796 L50.3591718,27.8869244 L49.5358204,27.8869244 L49.5358204,24.7623997 L50.3591718,24.7623997 L50.3591718,25.1700724 C50.4887331,24.9823368 50.9037163,24.6847937 51.3832383,24.6847937 C51.8435599,24.6847937 52.1351131,24.8982906 52.251928,25.2541186 C52.4334429,24.9694562 52.8482648,24.6847937 53.3279481,24.6847937 C53.9049233,24.6847937 54.24843,24.9889382 54.24843,25.6292677 L54.24843,27.8869244 L53.4186248,27.8869244 L53.4186248,25.9139302" id="Fill-9"></path>
                <path d="M54.8655566,27.8869244 L55.7012919,27.8869244 L55.7012919,24.7623997 L54.8655566,24.7623997 L54.8655566,27.8869244 Z M54.7800669,23.8696093 C54.7800669,23.5981495 55.0103322,23.3782123 55.2802307,23.3782123 C55.5565163,23.3782123 55.7800669,23.5981495 55.7800669,23.8696093 C55.7800669,24.1413911 55.5565163,24.3614893 55.2802307,24.3614893 C55.0103322,24.3614893 54.7800669,24.1413911 54.7800669,23.8696093 L54.7800669,23.8696093 Z" id="Fill-10"></path>
                <path d="M58.4231104,25.9979764 C58.4231104,25.5647034 58.1962571,25.4157709 57.8461352,25.4157709 C57.5219899,25.4157709 57.2693213,25.5969051 57.1331448,25.7844796 L57.1331448,27.8869244 L56.3097934,27.8869244 L56.3097934,24.7623997 L57.1331448,24.7623997 L57.1331448,25.1700724 C57.3340213,24.9306532 57.7164126,24.6847937 58.2285265,24.6847937 C58.9157014,24.6847937 59.2464617,25.0729844 59.2464617,25.6809513 L59.2464617,27.8869244 L58.4231104,27.8869244 L58.4231104,25.9979764" id="Fill-11"></path>
                <path d="M59.8698808,27.8869244 L60.7056161,27.8869244 L60.7056161,24.7623997 L59.8698808,24.7623997 L59.8698808,27.8869244 Z M59.7843911,23.8696093 C59.7843911,23.5981495 60.0146564,23.3782123 60.2843911,23.3782123 C60.5608405,23.3782123 60.7843911,23.5981495 60.7843911,23.8696093 C60.7843911,24.1413911 60.5608405,24.3614893 60.2843911,24.3614893 C60.0146564,24.3614893 59.7843911,24.1413911 59.7843911,23.8696093 L59.7843911,23.8696093 Z" id="Fill-12"></path>
            </g>
        </g>
    </g>
</svg>