<?xml version="1.0" encoding="UTF-8"?>
<svg width="55px" height="28px" viewBox="0 0 55 28" version="1.1" xmlns="http://www.w3.org/2000/svg" xmlns:xlink="http://www.w3.org/1999/xlink">
    <!-- Generator: Sketch 51.3 (57544) - http://www.bohemiancoding.com/sketch -->
    <title>AmazonFireTV_Black</title>
    <desc>Created with Sketch.</desc>
    <defs></defs>
    <g id="AmazonFireTV_Black" stroke="none" stroke-width="1" fill="none" fill-rule="evenodd">
        <g id="amazon_fire_tv" transform="translate(1.000000, 8.000000)" fill="#000000" fill-rule="nonzero">
            <g id="Amazon-FireTV---White" transform="translate(0.000000, 0.423529)">
                <path d="M18.4526333,9.40298604 C16.7243879,10.682776 14.2195543,11.3587213 12.0626143,11.3587213 C9.18430009,11.3729162 6.40406946,10.3092035 4.26530967,8.37554906 C4.1037075,8.22909423 4.24735385,8.02856377 4.44262315,8.15023392 C6.81750167,9.51406639 9.50615775,10.2316951 12.2421722,10.2321457 C14.2886841,10.2220065 16.3129757,9.8063001 18.1990077,9.00868455 C18.4930338,8.88025495 18.7376816,9.19118981 18.4526333,9.40298604" id="Fill-1"></path>
                <path d="M19.1708652,8.58058581 C18.9464177,8.29668875 17.7097122,8.44539673 17.1508381,8.51299129 C16.9825025,8.53326964 16.9555688,8.38456166 17.108193,8.28767615 C18.0980063,7.58919926 19.718517,7.79198289 19.9070528,8.02405747 C20.0955887,8.25613203 19.8576744,9.89191985 18.9307064,10.669257 C18.78706,10.7886741 18.6523915,10.7255858 18.7062589,10.5678652 C18.9262174,10.0338684 19.3930681,8.86448287 19.1708652,8.58058581" id="Fill-3"></path>
                <path d="M17.1934831,3.35102175 L17.1934831,2.67507635 C17.1910142,2.58292248 17.2632863,2.50631534 17.3548608,2.50383687 L17.3640631,2.50383687 L20.3896149,2.50383687 C20.4825361,2.50000651 20.5608683,2.57255798 20.5644594,2.66583844 C20.5646839,2.66899286 20.5646839,2.67192196 20.5646839,2.67507635 L20.5646839,3.2473768 C20.5274256,3.40622394 20.4502157,3.55290409 20.3402364,3.67322239 L18.7691042,5.92637363 C19.3670322,5.89392826 19.9629402,6.02235789 20.4951052,6.29814359 C20.591842,6.35086734 20.6533406,6.45135787 20.6567073,6.5617623 L20.6567073,7.28502385 C20.660074,7.37447395 20.5904953,7.44995451 20.5011652,7.45310893 C20.4775982,7.45401018 20.4540313,7.44972919 20.4322599,7.44049128 C19.4296531,6.92136524 18.2387349,6.92136524 17.2361281,7.44049128 C17.1539803,7.47541511 17.0590391,7.43688625 17.0242497,7.35442091 C17.0148229,7.33188939 17.010334,7.30733003 17.0116806,7.2827707 L17.0116806,6.602319 C17.001805,6.43919085 17.0408588,6.27651334 17.1239044,6.13591671 L18.9396843,3.52000808 L17.3685521,3.52000808 C17.2756309,3.52383845 17.1972987,3.45106165 17.1937075,3.35800652 C17.1934831,3.35552805 17.1934831,3.3532749 17.1934831,3.35102175" id="Fill-5"></path>
                <path d="M6.15515723,7.58243981 L5.23492266,7.58243981 C5.14963263,7.57838414 5.07982947,7.51236681 5.07107602,7.42697238 L5.07107602,2.69535473 C5.07219827,2.5995958 5.15053043,2.52276334 5.24614505,2.52411523 L5.24838952,2.52411523 L6.10577881,2.52411523 C6.19443553,2.52614307 6.26715651,2.59531481 6.27411439,2.68408898 L6.27411439,3.29243982 L6.28533675,3.29243982 C6.44042996,2.75506324 6.94027443,2.3925312 7.49735301,2.41371082 C8.0719385,2.41371082 8.43329891,2.69310158 8.69141348,3.29243982 C8.95760817,2.58720347 9.74272537,2.23210683 10.4452459,2.49933057 C10.6764268,2.58720347 10.8795517,2.7368127 11.0324004,2.93193561 C11.3241821,3.33074337 11.2568479,3.90980327 11.2568479,4.41901543 L11.2568479,7.41345348 C11.2557257,7.50921239 11.1773935,7.58604486 11.0817789,7.58469296 L11.0795344,7.58469296 L10.1682777,7.58469296 C10.0762543,7.58108793 10.0033089,7.50583268 10.0021866,7.41345348 L10.0021866,4.89893665 C10.0147557,4.60264728 10.0057778,4.30613256 9.97525292,4.01119507 C9.938668,3.74735104 9.69581584,3.56349391 9.43321233,3.60022026 C9.4311923,3.6006709 9.42939672,3.60089621 9.42760114,3.60112153 C9.1829534,3.60878225 8.96658607,3.76199653 8.87770488,3.99091669 C8.80206607,4.28495294 8.77311236,4.58912835 8.79241484,4.8921772 L8.79241484,7.41345348 C8.79129259,7.50921239 8.71296043,7.58604486 8.61734581,7.58469296 L8.61510134,7.58469296 L7.69486677,7.58469296 C7.60284334,7.58108793 7.52989791,7.50583268 7.52877566,7.41345348 L7.52877566,4.89893665 C7.52877566,4.36944611 7.6140657,3.59210893 6.9609236,3.59210893 C6.30778151,3.59210893 6.3257373,4.35142091 6.3257373,4.89893665 L6.3257373,7.41345348 C6.32326839,7.50673392 6.24807847,7.58131324 6.15515723,7.58243981" id="Fill-7"></path>
                <path d="M23.1682744,3.38256585 C22.494932,3.38256585 22.4455535,4.31086418 22.4455535,4.88992405 C22.4455535,5.46898394 22.4455535,6.70596398 23.1592965,6.70596398 C23.8730394,6.70596398 23.9067065,5.70781797 23.9067065,5.09946713 C23.9217445,4.67587469 23.8757327,4.25250757 23.7697935,3.84220871 C23.7116616,3.56371923 23.4605049,3.36882163 23.1772522,3.38256585 L23.1682744,3.38256585 Z M23.1682744,2.41371082 C24.5351594,2.41371082 25.2735915,3.59210893 25.2735915,5.08820135 C25.2735915,6.53472447 24.4566028,7.68383161 23.1682744,7.68383161 C21.8215896,7.68383161 21.0966243,6.5054335 21.0966243,5.03863203 C21.0966243,3.57183056 21.8373009,2.41371082 23.1682744,2.41371082 Z" id="Fill-9"></path>
                <path d="M27.0467264,7.58243981 L26.1287363,7.58243981 C26.0367128,7.57883478 25.9637674,7.50357953 25.9626452,7.41120033 L25.9626452,2.6683169 C25.9729698,2.57841618 26.0497308,2.51104695 26.1399586,2.51284947 L26.992859,2.51284947 C27.0709666,2.51555326 27.1376275,2.5698542 27.1567056,2.6457854 L27.1567056,3.3713001 L27.1746614,3.3713001 C27.4327761,2.72239253 27.7941364,2.41371082 28.4293228,2.41371082 C28.8616084,2.39320714 29.2716741,2.60635525 29.504426,2.97249234 C29.7445847,3.35102175 29.7445847,3.99091669 29.7445847,4.45055956 L29.7445847,7.43373183 C29.731118,7.52092878 29.6552546,7.58469296 29.5672712,7.58243981 L28.6447924,7.58243981 C28.5615222,7.57883478 28.4928414,7.51642248 28.4809455,7.43373183 L28.4809455,4.85837995 C28.4809455,4.34015516 28.5415465,3.58084318 27.9063601,3.58084318 C27.6704659,3.59120766 27.4624031,3.73923971 27.3744196,3.95937259 C27.2608494,4.2455228 27.2110219,4.55307795 27.2285288,4.8606331 L27.2285288,7.41345348 C27.2249375,7.51033898 27.1436876,7.58604486 27.0469509,7.58243981 L27.0467264,7.58243981" id="Fill-11"></path>
                <path d="M14.6078484,6.30039674 C14.4875446,6.54644086 14.2431213,6.70709054 13.9704176,6.71948288 C13.6180351,6.71948288 13.4115435,6.44910472 13.4115435,6.04353751 C13.4115435,5.25718771 14.114064,5.11298603 14.7806729,5.11298603 L14.7806729,5.31351649 C14.816809,5.65148917 14.7568815,5.99284159 14.6078484,6.29814359 L14.6078484,6.30039674 Z M16.4191394,6.71497658 C16.1994053,6.48402856 16.0750614,6.17805064 16.0712458,5.8587791 L16.0712458,4.41901543 C16.0712458,3.80841144 16.1138908,3.24962995 15.6672404,2.82829066 C15.3148579,2.48806481 14.72905,2.3776604 14.2801551,2.3776604 C13.40481,2.3776604 12.4262191,2.70662048 12.2219719,3.79263939 C12.2037917,3.88028697 12.2599036,3.96613204 12.3474381,3.98438256 C12.3512537,3.98528383 12.3550693,3.98595976 12.3588849,3.98641039 L13.2566747,4.0832959 C13.3408425,4.0681998 13.4054834,3.999704 13.4160324,3.91430957 C13.4892023,3.5691268 13.8061221,3.33186996 14.156709,3.36003435 C14.3578139,3.35079643 14.5506143,3.44092249 14.6729382,3.60112153 C14.7759595,3.8104393 14.8150134,4.04566827 14.7851619,4.2770669 L14.7851619,4.37395241 C14.2509769,4.43478751 13.5529454,4.47309106 13.054672,4.69389989 C12.4452972,4.94152121 12.0538608,5.54378855 12.0738366,6.20351124 C12.0738366,7.16335367 12.6776003,7.64327488 13.451944,7.64327488 C14.1073306,7.64327488 14.464202,7.48780745 14.9692088,6.96732951 C15.102755,7.20593823 15.2784974,7.41818509 15.4876824,7.59370556 C15.5592812,7.63606482 15.6501824,7.6270522 15.7121299,7.57117406 C15.8961768,7.406694 16.2306035,7.12054379 16.4168949,6.95831691 C16.4837802,6.89139831 16.484678,6.78302174 16.4191394,6.71497658 Z" id="Fill-13"></path>
                <path d="M2.54155321,6.30039674 C2.42124937,6.54644086 2.17682609,6.70709054 1.90412243,6.71948288 C1.55173993,6.71948288 1.34524827,6.44910472 1.34524827,6.04353751 C1.34524827,5.25718771 2.0477688,5.11298603 2.71437774,5.11298603 L2.71437774,5.31351649 C2.7505138,5.65148917 2.69058632,5.99284159 2.54155321,6.29814359 L2.54155321,6.30039674 Z M4.35284418,6.71497658 C4.1331101,6.48402856 4.00876621,6.17805064 4.00495061,5.8587791 L4.00495061,4.41901543 C4.00495061,3.80841144 4.04759562,3.24962995 3.60094519,2.82829066 C3.24856268,2.48806481 2.66275482,2.3776604 2.21385992,2.3776604 C1.33851485,2.3776604 0.359923939,2.70662048 0.155676755,3.79263939 C0.137496511,3.88028697 0.193608375,3.96613204 0.281142881,3.98438256 C0.28495849,3.98528383 0.288774095,3.98595976 0.292589704,3.98641039 L1.19037952,4.0832959 C1.27746514,4.06594665 1.342106,3.99204328 1.34749274,3.90304379 C1.42066261,3.55786102 1.73758242,3.32060421 2.08816935,3.3487686 C2.28927427,3.33953068 2.48207463,3.42965674 2.60439849,3.58985578 C2.70741986,3.79917352 2.74647372,4.03440252 2.71662223,4.26580115 L2.71662223,4.37395241 C2.18243728,4.43478751 1.48440569,4.47309106 0.98613234,4.69389989 C0.373390788,4.94061996 -0.02029005,5.54559107 0.000808010842,6.20801754 C0.000808010842,7.16785997 0.604571665,7.64778121 1.37891539,7.64778121 C2.03430196,7.64778121 2.39117341,7.49231375 2.89618017,6.97183581 C3.03354204,7.20729013 3.2122022,7.41570663 3.42363171,7.58694611 C3.49523044,7.62930535 3.58613166,7.62029275 3.64807916,7.56441461 C3.83212607,7.39993455 4.16655278,7.11378434 4.35508864,6.95155746 C4.41636279,6.88441354 4.41524057,6.78099391 4.35284418,6.71497658 Z" id="Fill-15"></path>
                <path d="M36.7204116,0.922124684 C36.7204116,1.24815567 36.4571349,1.51245031 36.1323593,1.51245031 C35.807584,1.51245031 35.544307,1.24815567 35.544307,0.922124684 C35.544307,0.596093696 35.807584,0.331799056 36.1323593,0.331799056 L36.1368484,0.331799056 C36.4598283,0.334277521 36.7204116,0.597896219 36.7204116,0.922124684 Z M36.5296315,7.50583268 L35.6610198,7.50583268 L35.6610198,2.54889989 L36.5296315,2.54889989 L36.5296315,7.50583268 Z M32.6826019,7.50583268 L32.6826019,3.34200915 L31.8835691,3.34200915 L31.8835691,2.5534062 L32.6826019,2.5534062 L32.6826019,1.99687783 C32.6826019,1.41781796 32.6624016,1.1294146 32.9070494,0.672024894 C33.1516972,0.214635189 33.690371,0.0929650209 34.2829122,0.0929650209 C34.491424,0.104005462 34.6990378,0.128114181 34.9046317,0.165065861 L34.7430296,0.967187711 C34.5724496,0.897340021 33.9439966,0.768910399 33.690371,1.06182006 C33.5332578,1.24207216 33.553458,1.64989254 33.553458,2.00138414 L33.553458,2.56016565 L34.8372977,2.56016565 L34.5859163,3.3487686 L33.553458,3.3487686 L33.553458,7.50583268 L32.6848466,7.50583268 L32.6826019,7.50583268 Z" id="Fill-18"></path>
                <path d="M39.9524551,3.32623707 C39.7576347,3.25661471 39.550694,3.2268731 39.3442025,3.23836417 C39.0569098,3.2699083 38.3992788,3.71152594 38.3072551,3.93684107 L38.3072551,7.50583268 L37.4498659,7.50583268 L37.4498659,2.49482427 L38.2152317,2.49482427 L38.291544,3.17076964 C38.4531461,2.97001387 38.6336017,2.78503015 38.8302178,2.61874758 C39.0470339,2.46823708 39.3051486,2.3896021 39.5686498,2.39343246 C39.6427174,2.39343246 40.2060806,2.50834317 40.2419922,2.51960893 L39.9524551,3.32623707 Z" id="Fill-21"></path>
                <path d="M42.2036629,3.13922552 C41.885172,3.13697237 41.5832903,3.28139936 41.3844297,3.53127386 C41.14876,3.82215568 41.0006247,4.17477386 40.9579796,4.54744506 L43.3842567,4.54744506 L43.3842567,4.43253436 C43.3970502,4.09906797 43.2922333,3.7719104 43.087986,3.50874233 C42.8648853,3.25300966 42.5347229,3.11759526 42.1969296,3.14373182 L42.2036629,3.13922552 Z M42.3428204,7.64552806 C41.7168365,7.67819875 41.108584,7.43080272 40.6819093,6.96958266 C40.2608459,6.46667931 40.0438051,5.82317931 40.0736568,5.16706166 L40.0736568,4.94174652 C40.0453764,4.28269979 40.2693747,3.63762259 40.6998651,3.13922552 C41.07357,2.6933269 41.6254863,2.43736891 42.2059074,2.44074863 C42.8821676,2.44074863 43.3903166,2.63970189 43.7299057,3.03783371 C44.0919394,3.50288415 44.2730687,4.08442249 44.2394015,4.67362154 L44.2394015,5.23465621 L40.931046,5.23465621 C40.9218435,5.67897763 41.0556142,6.11428646 41.3126066,6.47614255 C41.5581522,6.79361156 41.9430796,6.97025861 42.3428204,6.94930431 C42.6170951,6.95516249 42.8900233,6.91100074 43.1485867,6.81862153 C43.3746053,6.73683215 43.5842394,6.61561261 43.7680617,6.46037047 L44.1047329,7.03041776 C43.9038524,7.22531533 43.6666116,7.37852961 43.4067014,7.481048 C43.0659903,7.60407006 42.7046297,7.6599482 42.3428204,7.64552806 Z" id="Fill-23"></path>
                <polygon id="Fill-25" points="48.3804569 1.582298 46.2616729 1.582298 46.2616729 7.52836418 45.5344631 7.52836418 45.5344631 1.582298 43.5436144 1.582298 43.2922333 1.01450389 48.631838 1.01450389"></polygon>
                <polygon id="Fill-27" points="51.3992753 6.71722973 53.194855 1.00999758 53.8681974 1.00999758 51.7673692 7.52836418 51.0244481 7.52836418 48.9415757 1.01450389 49.6553186 1.01450389"></polygon>
            </g>
        </g>
    </g>
</svg>