<svg id="Layer_1" data-name="Layer 1" xmlns="http://www.w3.org/2000/svg" viewBox="0 0 204 83"><defs><style>.cls-1{fill:none;}.cls-2{fill-rule:evenodd;}</style></defs><title>amazon_fire_tablet[1]</title><g id="UI-KIT"><g id="Amazon-Fire-Tablet"><rect id="Rectangle" class="cls-1" width="204" height="83"/><g id="fire-tablets-white"><g id="Combined-Shape"><path class="cls-2" d="M8,62.15h9.09l-.43,1.19H13V74.81H11.6V63.34H8Zm14.44,0h1l4.87,12.7H26.7l-1.27-3.4h-5.1l-1.25,3.4H17.57ZM25,70.22l-1.33-3.65c-.39-1.12-.6-1.71-.75-2.19h0c-.14.48-.37,1.07-.77,2.19l-1.32,3.65Zm6.39-8.07h3c2.7,0,3.9,1.48,3.9,3.21a2.83,2.83,0,0,1-1.68,2.74v0A3.06,3.06,0,0,1,39,71.22c0,2.13-1.51,3.59-4.33,3.59H31.37Zm3.32,11.47c1.72,0,2.86-.67,2.86-2.37,0-1.42-1.06-2.32-2.68-2.32H32.8v4.69Zm-.5-5.88c1.7,0,2.61-.83,2.61-2.23s-.74-2.17-2.55-2.17H32.8v4.4Zm8.65-5.59h1.43V73.62H49v1.19H42.84Zm9.42,0H58.4L58,63.34H53.69v4.4h4.19v1.17H53.69v4.71h4.83v1.19H52.26Zm12.57,1.19H61.18V62.15h9.09l-.42,1.19H66.26V74.81H64.83Zm8.32,9.59a5.13,5.13,0,0,0,2.76.84c1.37,0,2.57-.56,2.57-2,0-3-5.6-2.67-5.6-6.46,0-1.78,1.37-3.21,3.75-3.21a6.57,6.57,0,0,1,2.76.58V64a5.63,5.63,0,0,0-2.73-.7c-1.14,0-2.29.5-2.29,1.87C74.37,68,80,67.68,80,71.62,80,73.73,78.32,75,75.89,75a5.87,5.87,0,0,1-3.34-1ZM4.91,11.87C4.91,3.23,10.12,0,15.86,0A14.79,14.79,0,0,1,22,1.28L20.62,6.61a11.2,11.2,0,0,0-4.08-.82c-3.4,0-5,2.1-5,5.85v6h9.13L19,23h-7.4v30.2H4.91V23H0V17.65H4.91ZM25.83,6.08a4.12,4.12,0,0,1,4.23-4.2,4.16,4.16,0,0,1,4.38,4.2,4.27,4.27,0,0,1-4.38,4.29A4.14,4.14,0,0,1,25.83,6.08ZM58.91,35.16c0-10.82,6-18.41,15.1-18.41,9.37,0,14.8,7.14,14.8,18.49v1.65H65.71c.15,6.68,4.22,11.64,11.32,11.64a18.4,18.4,0,0,0,8.84-2.4L88,50.71A22.75,22.75,0,0,1,76.2,53.94C64.35,53.94,58.91,45.3,58.91,35.16ZM74,22c-5.13,0-8.23,4.51-8.3,9.92H81.94C81.79,27,79.38,22,74,22ZM46,22c3.77-4,6.79-5.26,10-5.26a8.37,8.37,0,0,1,4.23,1.06l-2.34,5.85a7.24,7.24,0,0,0-3.4-.9c-2.57,0-4.91,1.36-8.24,4.59V53.19H39.65V17.65h5.59ZM26.81,53.19V17.65h6.65V53.19Z" transform="translate(58 4)"/></g></g></g></g></svg>