<svg id="Layer_1" data-name="Layer 1" xmlns="http://www.w3.org/2000/svg" viewBox="0 0 204 84.17"><defs><style>.cls-1{fill:none;}.cls-2{fill-rule:evenodd;}</style></defs><title>android_robot[1]</title><g id="UI-KIT"><g id="Android-Robot-grid"><rect id="Rectangle" class="cls-1" width="204" height="83"/><g id="Android-Robot---White"><path id="Fill-1" class="cls-2" d="M67,31a4.88,4.88,0,1,0-9.76,0V51.64a4.88,4.88,0,1,0,9.76,0Zm-55.3-4V59a5.23,5.23,0,0,0,5.21,5.27h3.54V75.23a4.88,4.88,0,1,0,9.76,0v-11h6.59v11a4.89,4.89,0,1,0,9.77,0V64.28h3.56A5.25,5.25,0,0,0,55.32,59V27Zm31.83-9.78a1.87,1.87,0,1,1,1.84-1.86,1.85,1.85,0,0,1-1.84,1.86Zm-20,0a1.87,1.87,0,1,1,1.84-1.87,1.86,1.86,0,0,1-1.84,1.87ZM44.26,7.45l3.4-6.3A.68.68,0,1,0,46.48.49L43,6.85a23.58,23.58,0,0,0-19.12,0L20.48.5a.67.67,0,0,0-.92-.28.69.69,0,0,0-.27.93L22.7,7.44a20.2,20.2,0,0,0-11.22,17.8h44A20.18,20.18,0,0,0,44.26,7.45ZM4.88,26A4.92,4.92,0,0,0,0,31V51.65a4.91,4.91,0,0,0,4.89,4.94,4.91,4.91,0,0,0,4.88-4.94V31A4.91,4.91,0,0,0,4.88,26Z" transform="translate(68 4)"/></g></g></g></svg>