<?xml version="1.0" encoding="UTF-8"?>
<svg width="55px" height="28px" viewBox="0 0 55 28" version="1.1" xmlns="http://www.w3.org/2000/svg" xmlns:xlink="http://www.w3.org/1999/xlink">
    <!-- Generator: Sketch 46.2 (44496) - http://www.bohemiancoding.com/sketch -->
    <title>Android_TV_Black</title>
    <desc>Created with Sketch.</desc>
    <defs></defs>
    <g id="Devices" stroke="none" stroke-width="1" fill="none" fill-rule="evenodd">
        <g id="Android_TV_Black" fill-rule="nonzero" fill="#000000">
            <g id="android_tv" transform="translate(0.000000, 8.000000)">
                <g id="Logos-/-White-/-android_tv" transform="translate(0.000000, 0.184874)">
                    <path d="M44.8870742,3.10473231 L47.24797,3.10473231 L47.24797,2.53423231 L44.8870742,2.53423231 L44.8870742,0.746606335 L44.2967352,0.746606335 L44.2967352,6.97714285 C44.2935105,7.02989685 44.2967352,7.27363369 44.2967352,7.27363369 L44.3156224,7.4766364 C44.4879101,8.72893172 45.5905062,9.69631095 46.9312646,9.704992 L46.9312646,9.70588235 L47.24797,9.70588235 L47.24797,9.13560496 L46.995527,9.13560496 C46.995527,9.13560496 46.8688448,9.12736911 46.8522609,9.12647873 C46.5189714,9.11156516 46.2061816,9.02008037 45.9325479,8.86983164 C45.3083502,8.52748713 44.8870742,7.8790804 44.8870742,7.13562745 C44.8870742,7.12872713 44.8879955,7.1220494 44.888226,7.11514909 L44.8870742,7.1149265 L44.8870742,5.51360894 L44.8870742,3.10473231 Z M48.4788606,2.527332 L51.9050384,9.69208172 L48.4788606,2.527332 Z M51.6097536,9.70588235 L51.3004188,9.70588235 L47.9101724,2.53423231 L48.5002812,2.53423231 L51.4552015,8.78480199 L54.4098912,2.53423231 L55,2.53423231 L51.6097536,9.70588235 Z" id="Fill-4"></path>
                    <g id="Android-Logo---White">
                        <path d="M5.2317313,6.11468607 L5.2317313,5.13617468 C5.23553638,5.07219509 5.21422782,5.00940396 5.17275218,4.96186496 C4.85959221,4.55302941 4.41363415,4.27769928 3.91897075,4.18737515 C3.16936546,4.07645077 2.53581579,4.27453001 2.07349577,4.93413385 C1.74625691,5.42002221 1.63153305,6.02713504 1.75767222,6.60592256 C1.91253991,7.46439796 2.61990857,8.09547839 3.45855327,8.12320947 C4.31660401,8.12320947 5.00723022,7.43191296 5.17084964,7.25166087 C5.21156425,7.21006423 5.23363384,7.15262124 5.2317313,7.09319748 L5.2317313,6.11468607 Z M5.20890066,3.16924791 C5.23078001,3.12963205 5.23877073,3.08347959 5.2317313,3.0385156 L5.2317313,2.69980013 C5.2317313,2.6007605 5.25646448,2.5750102 5.35159204,2.5750102 L6.80133629,2.5750102 C6.88885366,2.5750102 6.90787919,2.6027413 6.90787919,2.68791537 L6.90787919,9.44637876 C6.90787919,9.53353362 6.88695112,9.56126471 6.79943375,9.55928392 L5.34017674,9.55928392 C5.2431466,9.56126471 5.2317313,9.52957203 5.2317313,9.43449399 L5.2317313,8.98683495 C5.19558282,8.96702702 5.1803624,8.99673888 5.16323945,9.01258525 C4.59019092,9.52046039 3.84115638,9.75914586 3.09326338,9.67218908 C2.24529617,9.61613265 1.45155168,9.21819148 0.880595971,8.56294539 C0.454234175,8.09211104 0.173798081,7.4984676 0.075816678,6.85946398 C-0.0737238713,6.08497418 -0.00104640334,5.28156483 0.285097345,4.54986014 C0.70403919,3.46220708 1.64542168,2.68732113 2.75841433,2.51360564 C3.34953707,2.39238115 3.96215867,2.45636075 4.51827448,2.69781932 C4.72451105,2.79388776 4.91666876,2.92006423 5.08903992,3.07218908 L5.20890066,3.16924791 Z" id="Fill-1"></path>
                        <path d="M41.503876,6.10676291 L41.503876,5.14013627 C41.5065397,5.06664885 41.4804745,4.99514225 41.431579,4.94205703 C41.1157555,4.54094659 40.670939,4.27274731 40.1797,4.18737515 C39.6814218,4.08734514 39.1652598,4.20322149 38.7508838,4.50826351 C37.9590421,5.15202101 37.7490003,6.30761525 38.2600256,7.20808342 C38.5587262,7.76468607 39.1184569,8.11449399 39.7306981,8.12717106 C40.3528325,8.12717106 41.1176581,7.65970409 41.4658249,7.23581453 C41.4951242,7.19798138 41.5088227,7.14945197 41.503876,7.10112064 L41.503876,6.10874369 L41.503876,6.10676291 Z M41.503876,8.9690078 C41.2658667,9.19085653 40.9930408,9.36853363 40.6971942,9.49391777 C39.9591945,9.78311343 39.1429999,9.76964407 38.4141323,9.4562827 C37.2524345,9.019518 36.437191,7.92394177 36.3213257,6.64355763 C36.1951864,5.83737515 36.3211354,5.01039437 36.6809079,4.28443397 C37.1700539,3.27422988 38.1205687,2.59362965 39.2017887,2.47993217 C39.7540995,2.39436194 40.3183962,2.47181092 40.8303726,2.70376172 C41.0284285,2.80161284 41.2133562,2.92620469 41.3802101,3.07416987 L41.5019733,3.17320947 L41.5019733,3.04247719 L41.5019733,0.621948981 C41.5019733,0.534794118 41.520999,0.507063026 41.6085164,0.509043819 L43.0791887,0.509043819 C43.1221862,0.494782114 43.168228,0.519542016 43.1819265,0.564506002 C43.1870633,0.581144659 43.1870633,0.599169868 43.1819265,0.616006603 L43.1819265,9.44439796 C43.1956247,9.49609663 43.1663256,9.54957804 43.116669,9.56364165 C43.1001167,9.56839556 43.0824229,9.56819748 43.0658708,9.56324549 L41.6066138,9.56324549 C41.5267066,9.56324549 41.4981684,9.54145678 41.5019733,9.4562827 C41.5076812,9.29980012 41.503876,9.14727911 41.503876,8.9690078 L41.503876,8.9690078 Z" id="Fill-3"></path>
                        <path d="M20.1838837,6.11468607 L20.1838837,5.13617468 C20.1876888,5.07219509 20.1663802,5.00940396 20.1249046,4.96186496 C19.8117446,4.55302941 19.3657865,4.27769928 18.8711231,4.18737515 C18.1215178,4.07645077 17.4879682,4.27453001 17.0256482,4.93413385 C16.6984093,5.42002221 16.5836854,6.02713504 16.7098246,6.60592256 C16.8646923,7.46439796 17.5720609,8.09547839 18.4107057,8.12320947 C19.2687564,8.12320947 19.9593826,7.43191296 20.123002,7.25166087 C20.1642874,7.20966807 20.186357,7.1512347 20.1838837,7.09121667 C20.1819811,6.76636675 20.1838837,6.4415168 20.1838837,6.11468607 L20.1838837,6.11468607 Z M20.1648582,3.16924791 C20.1848349,3.12903781 20.1907329,3.08288534 20.1819811,3.0385156 L20.1819811,0.629872149 C20.1819811,0.530832532 20.2067143,0.505082233 20.3018419,0.505082233 L21.7515861,0.505082233 C21.8391035,0.505082233 21.858129,0.532813325 21.858129,0.617987395 L21.858129,9.44637876 C21.858129,9.53353363 21.8372009,9.56126471 21.7496836,9.55928392 L20.2904266,9.55928392 C20.2010066,9.55928392 20.1800786,9.52759123 20.1838837,9.44241717 L20.1838837,8.9947581 C20.1477352,8.97495017 20.1325148,9.00466206 20.1153918,9.0205084 C19.5423433,9.52838355 18.7933088,9.76706902 18.0454158,9.68011224 C17.1974486,9.62405583 16.4037041,9.22611466 15.8327484,8.57086854 C15.4056255,8.09765725 15.1259505,7.50104262 15.0298716,6.85946398 C14.8809018,6.08477612 14.9543403,5.28136675 15.2410548,4.54986014 C15.6599967,3.46220708 16.6013792,2.68732113 17.7143718,2.51360564 C18.3054946,2.39238115 18.9181161,2.45636075 19.474232,2.69781932 C19.6804686,2.79388776 19.8726262,2.92006423 20.0449974,3.07218908 L20.1648582,3.16924791 Z" id="Fill-5"></path>
                        <path d="M27.8036024,6.06714706 C27.800939,6.19094659 27.8079784,6.31494417 27.8245305,6.43755524 C27.9021546,7.12290937 28.3435466,7.70427191 28.9660614,7.9409766 C29.7683674,8.28266326 30.6897733,7.95642677 31.1254574,7.17639075 C31.3579491,6.7715168 31.4549794,6.29790937 31.4013274,5.82945197 C31.3276986,4.79310145 30.4608962,4.01504621 29.465291,4.09170289 C29.2809337,4.10596458 29.0998109,4.14954202 28.9280106,4.22104863 C28.2208322,4.53282532 27.7729715,5.26809544 27.8036024,6.06714706 M33.1136238,6.06714706 C33.1516749,8.16480613 31.4584039,9.71180491 29.6110264,9.70586254 C27.691352,9.70586254 26.1350648,8.08557443 26.1350648,6.08695499 C26.1350648,4.08833554 27.691352,2.46804742 29.6110264,2.46804742 C31.6543668,2.46012425 33.1687977,4.21114467 33.1136238,6.06714706" id="Fill-7"></path>
                        <path d="M7.91052382,7.41210503 L7.91052382,5.78983614 C7.89891826,4.21332353 8.95825894,2.84756722 10.4409173,2.52747119 C11.5482023,2.29968007 12.4937704,2.65622269 13.2757191,3.47627071 C13.8588511,4.069518 14.1805726,4.88758525 14.1642107,5.73635474 L14.1642107,9.4305324 C14.1642107,9.53353363 14.1394775,9.56324549 14.0386423,9.56126471 L12.6117286,9.56126471 C12.5070883,9.56126471 12.4899653,9.52561044 12.4899653,9.42855162 C12.4899653,8.1707485 12.47855,6.91294539 12.4899653,5.66504621 C12.4989073,4.8489598 11.8708751,4.17984813 11.0870239,4.17053841 C11.0141561,4.16954803 10.9412884,4.17469808 10.8689914,4.18539437 C10.3088803,4.22283133 9.82563218,4.6084916 9.6456508,5.16192498 C9.5986578,5.30790937 9.57677845,5.46161884 9.58096406,5.61552642 L9.58096406,9.43251321 C9.58096406,9.53749519 9.56193854,9.57314945 9.45349312,9.57116867 L8.01516415,9.57116867 C7.96550757,9.58543038 7.91413867,9.55492617 7.90063056,9.50322749 C7.89606443,9.48599459 7.89625469,9.46757323 7.90101106,9.45034033 C7.91242639,8.76498619 7.91052382,8.08755524 7.91052382,7.41210503" id="Fill-9"></path>
                        <path d="M22.6572006,7.422009 C22.6572006,6.78815546 22.6476879,6.15430192 22.6572006,5.52044838 C22.6560591,4.84380972 22.8598224,4.1840078 23.2393814,3.6347341 C23.6693581,3.04089255 24.3008149,2.64057443 25.0049492,2.51558644 C25.2806289,2.45794538 25.5608748,2.42684694 25.8420719,2.42248919 C25.8782204,2.41080252 25.9164616,2.431997 25.9276867,2.46963205 C25.9316821,2.48329952 25.9316821,2.49795738 25.9276867,2.51162485 L25.9276867,4.07645077 C25.9276867,4.14974011 25.901051,4.16162485 25.8401693,4.16360563 C25.6670372,4.16717106 25.4948562,4.19054442 25.3264804,4.23293338 C24.7104342,4.35831752 24.2804576,4.94185895 24.3238358,5.59373769 L24.3238358,8.64415785 L24.3238358,9.45430192 C24.3238358,9.539476 24.3010052,9.56126471 24.221098,9.55928392 L22.7713537,9.55928392 C22.6781287,9.55928392 22.6495904,9.539476 22.6495904,9.4364748 L22.6495904,7.422009 L22.6572006,7.422009 Z" id="Fill-11"></path>
                        <path d="M35.5260591,6.07705102 L35.5260591,9.4305324 C35.5260591,9.53749519 35.4956183,9.55928392 35.3985883,9.55928392 L33.9602593,9.55928392 C33.8784495,9.55928392 33.8499112,9.539476 33.8499112,9.44835955 L33.8499112,2.71366568 C33.8499112,2.62056843 33.8803521,2.6027413 33.9602593,2.6027413 L35.3985883,2.6027413 C35.4956183,2.6027413 35.5260591,2.62651081 35.5241565,2.7314928 C35.5241565,3.8427173 35.5260591,4.95988415 35.5260591,6.07705102" id="Fill-13"></path>
                        <path d="M33.752881,1.09535834 C33.752881,0.560544417 34.1238786,0.0435576231 34.652788,0.0554423769 C35.2235535,0.0693079232 35.6573352,0.439716087 35.6592376,1.03593457 C35.6750288,1.58401981 35.2610338,2.04158283 34.7345978,2.05802341 C34.2081618,2.07446399 33.7686722,1.64344358 33.752881,1.09535834" id="Fill-15"></path>
                    </g>
                </g>
            </g>
        </g>
    </g>
</svg>