<?xml version="1.0" encoding="UTF-8"?>
<svg width="48px" height="25px" viewBox="0 0 48 25" version="1.1" xmlns="http://www.w3.org/2000/svg" xmlns:xlink="http://www.w3.org/1999/xlink">
    <title>Apple TV@3x</title>
    <g id="High-Fidelity-" stroke="none" stroke-width="1" fill="none" fill-rule="evenodd">
        <g id="Icons---Dark" transform="translate(-160.000000, -346.000000)" fill="#171725" fill-rule="nonzero">
            <g id="Group" transform="translate(140.119952, 342.344418)">
                <g id="Shape" transform="translate(20.600972, 4.588282)">
                    <path d="M13.0780283,3.82785309 C13.9599387,2.75835838 14.3969662,1.38670259 14.2976324,0 C12.9459963,0.131412605 11.6982902,0.787849383 10.818989,1.83016608 C9.93463174,2.83853698 9.4857372,4.16036297 9.57166663,5.50306232 C10.936712,5.53001134 12.235089,4.90969509 13.0780283,3.82785309 M14.2144775,5.75573971 C12.2741984,5.64266309 10.6388202,6.87254587 9.710258,6.87254587 C8.78169582,6.87254587 7.36806384,5.81716405 5.84355876,5.84508421 C3.81213583,5.90274501 1.96448379,7.04440244 0.992860795,8.84231272 C-1.08600976,12.4719327 0.438495313,17.8786705 2.46192932,20.8340188 C3.44592805,22.2384025 4.6239547,23.9122158 6.19003719,23.8577715 C7.75611967,23.8033272 8.24118947,22.8805661 10.0290182,22.8805661 C11.8168468,22.8805661 12.343494,23.8577715 13.8957174,23.8228713 C15.4479407,23.7879711 16.5289534,22.4156955 17.499093,20.8912551 C18.1988752,19.8500121 18.7450644,18.7120593 19.1206121,17.5129165 C17.2169296,16.6640052 15.9852445,14.7685891 15.9745879,12.6715618 C15.9979172,10.8206586 16.9532634,9.10849325 18.51081,8.12616077 C17.5236504,6.70443 15.9353099,5.82706063 14.2144775,5.7529477 M26.5906869,2.93859619 L26.5906869,6.92419815 L29.7505702,6.92419815 L29.7505702,9.55567265 L26.5906869,9.55567265 L26.5906869,18.9857046 C26.5906869,20.3928804 27.2143481,21.1104283 28.6002618,21.1104283 C28.980316,21.1035107 29.3597051,21.0755483 29.736711,21.0266679 L29.736711,23.6790825 C29.1182259,23.7799832 28.4922217,23.8266916 27.8657275,23.8186832 C24.5949712,23.8186832 23.3337897,22.5385442 23.3337897,19.3291225 L23.3337897,9.618493 L20.8530042,9.618493 L20.8530042,6.98003846 L23.264494,6.98003846 L23.264494,2.94138821 L26.5906869,2.93859619 Z M40.7963024,23.6734984 L37.3315181,23.6734984 L31.5106806,6.98003846 L34.9616057,6.98003846 L39.0500511,20.3928804 L39.133206,20.3928804 L43.2216514,6.98003846 L46.6032808,6.98003846 L40.7963024,23.6734984 Z"></path>
                </g>
            </g>
        </g>
    </g>
</svg>