<?xml version="1.0" encoding="UTF-8"?>
<svg width="88px" height="19px" viewBox="0 0 88 19" version="1.1" xmlns="http://www.w3.org/2000/svg" xmlns:xlink="http://www.w3.org/1999/xlink">
    <title>Chromecast@3x</title>
    <g id="High-Fidelity-" stroke="none" stroke-width="1" fill="none" fill-rule="evenodd">
        <g id="Icons---Dark" transform="translate(-140.000000, -246.000000)" fill="#171725" fill-rule="nonzero">
            <g id="Group" transform="translate(140.119952, 238.021378)">
                <g id="Chromecast---White" transform="translate(0.000020, 8.888926)">
                    <path d="M10.9855533,5.5397409 L16.9497005,5.5397409 C17.3498376,6.54480222 17.5721028,7.63996289 17.5721028,8.78770644 C17.5721028,13.6408965 13.638469,17.575333 8.78604639,17.575333 C8.57555295,17.575333 8.3674537,17.5652555 8.16055162,17.5506879 L11.5926922,11.5249096 C12.2820333,10.8179842 12.7082077,9.8531333 12.7082077,8.78770644 C12.7082077,7.43651605 12.024952,6.2452694 10.9855533,5.5397409 Z M8.78605634,12.7104589 C9.3837181,12.7104589 9.94786048,12.5728654 10.4548404,12.3336981 L7.50683479,17.4815319 C3.26095252,16.8619121 0,13.2062546 0,8.78769643 C0,6.98551062 0.543192805,5.31064115 1.47365365,3.9163468 L5.33645782,10.6556358 C5.33765494,10.6579307 5.33915133,10.6602256 5.34044822,10.6626203 L5.428636,10.8164776 L5.42414679,10.8004133 C6.10969702,11.943168 7.35669612,12.7104589 8.78605634,12.7104589 Z M8.66330175,4.8710503 C6.55447667,4.93650451 4.86394493,6.66255992 4.86394493,8.7876266 L1.85139462,3.39503795 C3.45902586,1.32993772 5.96649165,0 8.78610622,0 C12.2285221,0 15.2066552,1.98128692 16.6478869,4.8648641 L8.64544475,4.8648641 L8.66330175,4.8710503 Z M5.48249637,8.78765654 C5.48249637,6.96282112 6.96153705,5.48351613 8.78604639,5.48351613 C10.6105557,5.48351613 12.0895964,6.96282112 12.0895964,8.78765654 C12.0895964,10.6124919 10.6105557,12.0917969 8.78604639,12.0917969 C6.96153705,12.0917969 5.48249637,10.6124919 5.48249637,8.78765654 Z" id="Fill-3"></path>
                    <path d="M25.5993751,5.67917031 C23.7221925,5.67917031 22.3813194,7.10968401 22.3813194,9.01274516 C22.3813194,10.9030348 23.7221925,12.3462203 25.5993751,12.3462203 C27.0933798,12.3462203 28.0000978,11.4649831 28.3831759,10.5454313 L27.3360957,10.0983272 C27.0295334,10.8264055 26.3910699,11.2734098 25.5227595,11.2734098 C24.5266566,11.2734098 23.556192,10.3665298 23.556192,9.01274516 C23.556192,7.6588608 24.5266566,6.75198075 25.5227595,6.75198075 C26.3910699,6.75198075 26.9657868,7.18631334 27.2722493,7.9270634 L28.3448681,7.48005904 C27.9617899,6.56050723 27.0933798,5.67917031 25.5993751,5.67917031" id="Fill-13"></path>
                    <path d="M30.4514685,2.9970145 L29.2765959,2.9970145 L29.2765959,12.1418455 L30.4514685,12.1418455 L30.4514685,8.68065486 C30.4514685,7.72268862 31.0772626,6.75195081 32.0988042,6.75195081 C32.9926532,6.75195081 33.643886,7.18628341 33.643886,8.48898178 L33.643886,12.1418455 L34.8188584,12.1418455 L34.8188584,8.31027983 C34.8188584,6.76482214 34.0270639,5.67914038 32.4308053,5.67914038 C31.5752641,5.67914038 30.7834696,6.17723093 30.4514685,6.75195081 L30.4003915,6.75195081 L30.4514685,5.88358499 L30.4514685,2.9970145" id="Fill-15"></path>
                    <path d="M39.0578872,5.73024654 C38.4066544,5.73024654 37.4999364,6.19002247 37.244551,6.9053292 L37.1935736,6.9053292 L37.1935736,5.8835052 L36.0697781,5.8835052 L36.0697781,12.1418654 L37.244551,12.1418654 L37.244551,8.71888969 C37.244551,7.56944993 38.0618841,6.89255763 38.8663481,6.89255763 C39.1217335,6.89255763 39.3260419,6.91800097 39.4921422,6.98185873 L39.9390666,5.8835052 C39.6964505,5.78133278 39.4410651,5.73024654 39.0578872,5.73024654" id="Fill-17"></path>
                    <path d="M43.2461881,5.67917031 C41.3690055,5.67917031 40.0281323,7.10968401 40.0281323,9.01274516 C40.0281323,10.9157066 41.3690055,12.3462203 43.2461881,12.3462203 C45.1233704,12.3462203 46.4641442,10.9157066 46.4641442,9.01274516 C46.4641442,7.10968401 45.1233704,5.67917031 43.2461881,5.67917031 M43.2461881,11.2734098 C42.1990081,11.2734098 41.203005,10.4431591 41.203005,9.01274516 C41.203005,7.58223147 42.1990081,6.75198075 43.2461881,6.75198075 C44.2932685,6.75198075 45.289371,7.58223147 45.289371,9.01274516 C45.289371,10.4431591 44.2932685,11.2734098 43.2461881,11.2734098" id="Fill-19"></path>
                    <path d="M54.6748151,5.67917031 C53.7043505,5.67917031 52.9380945,6.17726087 52.4911702,6.87979607 C52.1719384,6.1389462 51.5206057,5.67917031 50.5118334,5.67917031 C49.7712157,5.67917031 48.9412131,6.15171777 48.5835738,6.75198075 L48.5324966,6.75198075 L48.5324966,5.88351516 L47.4087012,5.88351516 L47.4087012,12.1418754 L48.5835738,12.1418754 L48.5835738,8.6806848 C48.5835738,7.72271855 49.222037,6.75198075 50.1798324,6.75198075 C51.0736814,6.75198075 51.5716829,7.18631334 51.5716829,8.48901171 L51.5716829,12.1418754 L52.7465556,12.1418754 L52.7465556,8.6806848 C52.7465556,7.72271855 53.3850188,6.75198075 54.3428141,6.75198075 C55.2366631,6.75198075 55.7347641,7.18631334 55.7347641,8.48901171 L55.7347641,12.1418754 L56.9095373,12.1418754 L56.9095373,8.31021 C56.9095373,6.76475231 56.2072272,5.67917031 54.6748151,5.67917031" id="Fill-21"></path>
                    <path d="M60.8676123,5.67917031 C59.0286377,5.67917031 57.8027876,7.23739953 57.8027876,9.01274516 C57.8027876,10.9030348 59.0798144,12.3462203 60.9953047,12.3462203 C62.4382325,12.3462203 63.35762,11.5287411 63.7280285,10.6347324 L62.6809481,10.2004996 C62.3489471,10.9924356 61.6594066,11.2734098 60.9697663,11.2734098 C59.9992018,11.2734098 59.0415068,10.5581031 58.9776603,9.22986158 L63.9195674,9.22986158 C63.9195674,9.22986158 63.932337,9.10204626 63.932337,9.01274516 C63.932337,6.99474006 62.7320254,5.67917031 60.8676123,5.67917031 M59.054276,8.25912377 C59.2841229,7.33947219 59.9737632,6.75198075 60.8420734,6.75198075 C62.1829466,6.75198075 62.6425407,7.70994699 62.6809481,8.25912377 L59.054276,8.25912377" id="Fill-23"></path>
                    <path d="M67.8012363,5.67925015 C65.9240539,5.67925015 64.5831808,7.10966404 64.5831808,9.01272524 C64.5831808,10.9030148 65.9240539,12.3463001 67.8012363,12.3463001 C69.2952409,12.3463001 70.201959,11.4649631 70.5850372,10.5454114 L69.5379569,10.098407 C69.2314943,10.8263855 68.5929312,11.2733899 67.7246206,11.2733899 C66.7286175,11.2733899 65.7580534,10.3665098 65.7580534,9.01272524 C65.7580534,7.65884083 66.7286175,6.75206058 67.7246206,6.75206058 C68.5929312,6.75206058 69.1676478,7.18639317 69.4741105,7.92714324 L70.5467292,7.48003912 C70.1636514,6.5604873 69.2952409,5.67925015 67.8012363,5.67925015" id="Fill-25"></path>
                    <path d="M74.0324309,5.67925015 C72.4617108,5.67925015 71.7083239,6.62434506 71.4912461,7.19906494 L72.5639647,7.65884083 C72.7810425,7.07144918 73.4067365,6.75206058 74.0580692,6.75206058 C74.939149,6.75206058 75.6925359,7.32678046 75.6925359,8.27197517 L75.6925359,8.45077688 C75.4499198,8.31028979 74.8368951,8.06763032 73.9941233,8.06763032 C72.5255573,8.06763032 71.24863,8.83392348 71.24863,10.2516656 C71.24863,11.554364 72.3084795,12.3463001 73.5855067,12.3463001 C74.6581254,12.3463001 75.2966885,11.7970235 75.6414587,11.2733899 L75.6925359,11.2733899 L75.6925359,12.1419552 L76.8162319,12.1419552 L76.8162319,8.36137603 C76.8162319,6.59880196 75.564843,5.67925015 74.0324309,5.67925015 M73.7770456,11.2733899 C73.1641203,11.2733899 72.47448,10.9413295 72.47448,10.2772087 C72.47448,9.70238907 72.9598122,9.03826833 74.1984315,9.03826833 C75.1945344,9.03826833 75.6925359,9.44695803 75.6925359,9.44695803 C75.6925359,10.468782 74.7092022,11.2733899 73.7770456,11.2733899" id="Fill-27"></path>
                    <path d="M80.2255173,5.67925015 C78.9229517,5.67925015 77.7480791,6.40722864 77.7480791,7.54399664 C77.7480791,8.6423502 78.8463361,9.14044076 79.4209533,9.28092784 L80.6852112,9.58754488 C81.3492133,9.75357506 81.5407522,10.098407 81.5407522,10.4176958 C81.5407522,10.9413295 81.0172123,11.2989329 80.2892639,11.2989329 C79.535877,11.2989329 78.9229517,10.9157864 78.5909507,10.1238503 L77.5438708,10.5581829 C77.9140796,11.4522914 78.7697209,12.3463001 80.2764947,12.3463001 C81.7450603,12.3463001 82.7411633,11.4905063 82.7411633,10.3793812 C82.7411633,9.61308797 82.2558315,8.84669505 81.0172123,8.55294931 L79.7784932,8.2592036 C79.2804916,8.14425961 78.9484906,7.92714324 78.9484906,7.53112531 C78.9484906,7.02026319 79.5231078,6.72651748 80.1872097,6.72651748 C80.8001345,6.72651748 81.3747517,6.969177 81.6174677,7.5566684 L82.6390092,7.13520718 C82.2558315,6.1773407 81.3109052,5.67925015 80.2255173,5.67925015" id="Fill-29"></path>
                    <path d="M85.4351503,3.9677523 L84.2602776,3.9677523 L84.2602776,5.88358499 L83.1621205,5.88358499 L83.1621205,6.95639546 L84.2602776,6.95639546 L84.2602776,10.2388841 C84.2602776,11.5160394 84.9626871,12.2441177 86.2780219,12.2441177 C86.6738694,12.2441177 86.9546937,12.1930315 87.2229482,12.0780875 L86.8142316,11.069035 C86.6482311,11.1456644 86.4950997,11.1712075 86.2780219,11.1712075 C85.7288437,11.1712075 85.4351503,10.8519186 85.4351503,10.1494832 L85.4351503,6.95639546 L86.9675624,6.95639546 L86.9675624,5.88358499 L85.4351503,5.88358499 L85.4351503,3.9677523" id="Fill-31"></path>
                </g>
            </g>
        </g>
    </g>
</svg>