<?xml version="1.0" encoding="UTF-8"?>
<svg width="28px" height="29px" viewBox="0 0 28 29" version="1.1" xmlns="http://www.w3.org/2000/svg" xmlns:xlink="http://www.w3.org/1999/xlink">
    <title>Chrome@3x</title>
    <g id="High-Fidelity-" stroke="none" stroke-width="1" fill="none" fill-rule="evenodd">
        <g id="Icons---Dark" transform="translate(-168.000000, -294.000000)">
            <g id="Group" transform="translate(140.119952, 291.921615)">
                <g id="chrome" transform="translate(2.141981, -0.000000)">
                    <rect id="Rectangle" x="0" y="0" width="79.9540476" height="33.0356295"></rect>
                    <g id="Chrome---white" transform="translate(26.259418, 2.786137)" fill="#171725" fill-rule="nonzero">
                        <path d="M17.1096551,8.7818987 L26.3986277,8.7818987 C27.0218287,10.3751766 27.3679997,12.1112849 27.3679997,13.9307504 C27.3679997,21.6242914 21.2414884,27.8613742 13.6839921,27.8613742 C13.3561551,27.8613742 13.0320471,27.8453988 12.7098036,27.8223055 L18.055255,18.2699138 C19.1288822,17.1492572 19.7926355,15.619723 19.7926355,13.9307504 C19.7926355,11.7887699 18.728486,9.9003409 17.1096551,8.7818987 Z M13.6840076,20.1493112 C14.614847,20.1493112 15.4934811,19.9311904 16.2830865,19.5520494 L11.6916601,27.7126757 C5.07883141,26.7304205 0,20.9352734 0,13.9307346 C0,11.0738115 0.846005783,8.41871738 2.29516941,6.20840606 L8.31136591,16.8918937 C8.31323037,16.8955317 8.31556099,16.8991697 8.31758081,16.9029658 L8.45493054,17.1468688 L8.44793875,17.1214029 C9.51566176,18.9329598 11.4578238,20.1493112 13.6840076,20.1493112 Z M13.4928212,7.72185402 C10.2083921,7.82561559 7.57544185,10.5618526 7.57544185,13.9306239 L2.88348913,5.3819989 C5.38732442,2.10828964 9.29262387,0 13.6840853,0 C19.0455401,0 23.6838892,3.14084383 25.9285624,7.71204727 L13.4650094,7.71204727 L13.4928212,7.72185402 Z M8.5388164,13.9306713 C8.5388164,11.0378429 10.842376,8.69276814 13.6839921,8.69276814 C16.5256082,8.69276814 18.8291677,11.0378429 18.8291677,13.9306713 C18.8291677,16.8234997 16.5256082,19.1685745 13.6839921,19.1685745 C10.842376,19.1685745 8.5388164,16.8234997 8.5388164,13.9306713 Z" id="Fill-3"></path>
                    </g>
                </g>
            </g>
        </g>
    </g>
</svg>