<svg xmlns="http://www.w3.org/2000/svg" focusable="false" fill="currentColor"
    preserveAspectRatio="xMidYMid meet" height="1em"
    width="1em" viewBox="0 0 20 20" style="vertical-align: middle;">
    <g>
        <path
            d="M3.06141941,0.984565501 L9.99995764,7.92289883 L16.9385806,0.984565501 C17.050159,0.872987132 17.2211595,0.857047365 17.3497157,0.9367462 L17.4099851,0.984565501 L18.9883757,2.56295608 C19.1185505,2.69313084 19.1185505,2.90418584 18.9883757,3.0343606 L18.9883757,3.0343606 L12.0499576,9.97289883 L18.9883757,16.9115218 C19.1185505,17.0416965 19.1185505,17.2527515 18.9883757,17.3829263 L17.4099851,18.9613169 C17.2798103,19.0914916 17.0687554,19.0914916 16.9385806,18.9613169 L9.99995764,12.0228988 L3.06141941,18.9613169 C2.94984104,19.0728953 2.77884046,19.088835 2.65028432,19.0091362 L2.59001489,18.9613169 L1.01162431,17.3829263 C0.881449545,17.2527515 0.881449545,17.0416965 1.01162431,16.9115218 L1.01162431,16.9115218 L7.94995764,9.97289883 L1.01162431,3.0343606 C0.881449545,2.90418584 0.881449545,2.69313084 1.01162431,2.56295608 L2.59001489,0.984565501 C2.72018965,0.854390737 2.93124465,0.854390737 3.06141941,0.984565501 Z"
            id="x"></path>
    </g>
</svg>