<svg xmlns="http://www.w3.org/2000/svg" focusable="false" fill="currentColor"
    preserveAspectRatio="xMidYMid meet" height="1em" width="1em" viewBox="0 0 40 40" 
    style="vertical-align: middle; color: rgb(20, 171, 224); font-size: 40px;">
    <g>
        <path
            d="M6.12283882,1.969131 L19.9999153,15.8457977 L33.8771612,1.969131 C34.100318,1.7459743 34.442319,1.7140947 34.6994313,1.8734924 L34.8199703,1.969131 L37.9767514,5.1259122 C38.237101,5.3862617 38.237101,5.8083717 37.9767514,6.0687212 L37.9767514,6.0687212 L24.0999153,19.9457977 L37.9767514,33.8226876 C38.237101,34.0830371 38.237101,34.5051471 37.9767514,34.7654966 L34.8199703,37.922278 C34.5596207,38.1826275 34.1375107,38.1826275 33.8771612,37.922278 L19.9999153,24.0457977 L6.12283882,37.922278 C5.89968104,38.1454348 5.55768052,38.1773145 5.30056826,38.018216 L5.18002971,37.922278 L2.02324861,34.7654966 C1.76289905,34.5051471 1.76289905,34.0830371 2.02324861,33.8226876 L2.02324861,33.8226876 L15.8999153,19.9457977 L2.02324861,6.0687212 C1.76289905,5.8083717 1.76289905,5.3862617 2.02324861,5.1259122 L5.18002971,1.969131 C5.44037926,1.7087815 5.86248926,1.7087815 6.12283882,1.969131 Z"
            id="x" stroke="currentColor" stroke-width="6"></path>
    </g>
</svg>
