<?xml version="1.0" encoding="utf-8"?>
<!-- Generator: Adobe Illustrator 23.0.0, SVG Export Plug-In . SVG Version: 6.00 Build 0)  -->
<svg version="1.1" id="Layer_1" xmlns="http://www.w3.org/2000/svg" xmlns:xlink="http://www.w3.org/1999/xlink" x="0px" y="0px"
	 width="300px" height="99.328px" viewBox="0 0 300 99.328" enable-background="new 0 0 300 99.328" xml:space="preserve">
<g>
	<path d="M270.592,49.664l26.777-30.282c3.837-4.339,3.43-10.967-0.909-14.803c-4.339-3.837-10.967-3.429-14.804,0.909
		l-25.063,28.344L231.53,5.488c-3.837-4.339-10.464-4.747-14.804-0.909c-4.339,3.837-4.746,10.465-0.909,14.803l26.777,30.282
		l-26.777,30.282c-3.837,4.339-3.43,10.967,0.909,14.803c4.339,3.837,10.967,3.429,14.804-0.909l25.063-28.344l25.063,28.344
		c3.837,4.339,10.464,4.747,14.804,0.909c4.339-3.837,4.746-10.465,0.909-14.803L270.592,49.664z"/>
	<g>
		<path d="M146.192,99.328c-27.385,0-49.664-22.279-49.664-49.664S118.808,0,146.192,0c27.385,0,49.664,22.279,49.664,49.664
			S173.577,99.328,146.192,99.328z M146.192,20.975c-15.819,0-28.689,12.87-28.689,28.689s12.87,28.689,28.689,28.689
			c15.819,0,28.689-12.87,28.689-28.689S162.012,20.975,146.192,20.975z"/>
	</g>
	<g>
		<path d="M49.664,99.328C22.279,99.328,0,77.049,0,49.664S22.279,0,49.664,0c8.898,0,17.632,2.384,25.256,6.894
			c4.985,2.949,6.636,9.381,3.687,14.366c-2.949,4.985-9.38,6.636-14.366,3.687c-4.393-2.599-9.434-3.972-14.577-3.972
			c-15.819,0-28.689,12.87-28.689,28.689s12.87,28.689,28.689,28.689c5.143,0,10.184-1.374,14.577-3.972
			c4.986-2.948,11.417-1.298,14.366,3.687c2.949,4.985,1.298,11.417-3.687,14.366C67.295,96.944,58.562,99.328,49.664,99.328z"/>
	</g>
</g>
</svg>
