<svg xmlns="http://www.w3.org/2000/svg" focusable="false" fill="currentColor" preserveAspectRatio="xMidYMid meet" height="1em" width="1em" viewBox="0 0 28 23" class="sc-fyjhYU fszoxG" style="vertical-align: middle;">
  <g>
    <path d="M20,20 C20.5522847,20 21,20.4477153 21,21 L21,21.4 C21,21.9522847 20.5522847,22.4 20,22.4 L8,22.4 C7.44771525,22.4 7,21.9522847 7,21.4 L7,21 C7,20.4477153 7.44771525,20 8,20 L20,20 Z M24,0 C26.209139,0 28,1.790861 28,4 L28,14 C28,16.209139 26.209139,18 24,18 L4,18 C1.790861,18 0,16.209139 0,14 L0,4 C0,1.790861 1.790861,0 4,0 L24,0 Z M24,3 L4,3 C3.48716416,3 3.06449284,3.38604019 3.00672773,3.88337887 L3,4 L3,14 C3,14.5128358 3.38604019,14.9355072 3.88337887,14.9932723 L4,15 L24,15 C24.5128358,15 24.9355072,14.6139598 24.9932723,14.1166211 L25,14 L25,4 C25,3.48716416 24.6139598,3.06449284 24.1166211,3.00672773 L24,3 Z"></path>
  </g>
</svg>