<svg xmlns="http://www.w3.org/2000/svg" focusable="false" fill="currentColor" preserveAspectRatio="xMidYMid meet" height="1em" width="1em" viewBox="0 0 28 19" style="vertical-align: middle; font-size: 1.25rem; margin-right: 0.5rem; flex-shrink: 0;">
  <g>
    <path d="M16.5068137,0 C20.1792915,0 23.1851967,2.55300937 23.8504129,5.82127078 L23.8504129,5.82127078 L23.8599341,5.87392308 L23.915836,5.89595244 C26.2925607,6.87834536 27.9151242,9.08914241 27.99677,11.6141257 L27.99677,11.6141257 L28,11.8141026 C28,15.3794926 25.6948408,19 21.2070895,19 L21.2070895,19 L6.47955878,19 C1.84093021,19 0,15.8851762 0,12.707265 C0,10.4054379 1.48622012,8.26702505 3.64980715,7.44615077 L3.64980715,7.44615077 L3.82118551,7.38369231 L3.83132876,7.31508498 C4.32616738,4.16218643 7.3218728,2.32178315 10.2367546,2.9911443 L10.2367546,2.9911443 L10.3701427,3.02392308 L10.4168271,2.95984248 C11.7188693,1.21509625 13.833075,0.0753133455 16.2628072,0.00359451735 L16.2628072,0.00359451735 Z M11.9713773,7.43673274 C11.951557,7.4733066 11.9411765,7.51424824 11.9411765,7.55584741 L11.9411765,14.3038088 C11.9411765,14.44188 12.0531053,14.5538088 12.1911765,14.5538088 C12.2327823,14.5538088 12.2737303,14.543425 12.3103085,14.5235986 L18.5356421,11.1493004 C18.6570287,11.0835056 18.7020948,10.9317651 18.6363,10.8103786 C18.6132075,10.7677746 18.5782306,10.7328005 18.5356248,10.7097113 L12.3102911,7.33604819 C12.1888994,7.27026297 12.0371625,7.31534099 11.9713773,7.43673274 Z">
    </path>
  </g>
</svg>