<svg width="32" height="32" viewBox="0 0 32 32" fill="none" xmlns="http://www.w3.org/2000/svg">
<mask id="mask0_2466_11295" style="mask-type:alpha" maskUnits="userSpaceOnUse" x="0" y="0" width="32" height="32">
<rect width="32" height="32" fill="#D9D9D9"/>
</mask>
<g mask="url(#mask0_2466_11295)">
<path d="M5.50429 23.5131C5.26698 23.5131 5.06805 23.4324 4.90752 23.271C4.74696 23.1096 4.66669 22.9096 4.66669 22.671C4.66669 22.4325 4.74696 22.234 4.90752 22.0756C5.06805 21.9172 5.26698 21.838 5.50429 21.838H26.4957C26.733 21.838 26.9319 21.9187 27.0925 22.0801C27.253 22.2415 27.3333 22.4415 27.3333 22.68C27.3333 22.9186 27.253 23.1171 27.0925 23.2755C26.9319 23.4339 26.733 23.5131 26.4957 23.5131H5.50429ZM5.50429 16.8379C5.26698 16.8379 5.06805 16.7572 4.90752 16.5958C4.74696 16.4344 4.66669 16.2344 4.66669 15.9958C4.66669 15.7573 4.74696 15.5588 4.90752 15.4004C5.06805 15.242 5.26698 15.1628 5.50429 15.1628H26.4957C26.733 15.1628 26.9319 15.2435 27.0925 15.4048C27.253 15.5662 27.3333 15.7662 27.3333 16.0048C27.3333 16.2434 27.253 16.4419 27.0925 16.6003C26.9319 16.7587 26.733 16.8379 26.4957 16.8379H5.50429ZM5.50429 10.1627C5.26698 10.1627 5.06805 10.082 4.90752 9.92061C4.74696 9.75921 4.66669 9.55923 4.66669 9.32065C4.66669 9.08205 4.74696 8.88355 4.90752 8.72515C5.06805 8.56675 5.26698 8.48755 5.50429 8.48755H26.4957C26.733 8.48755 26.9319 8.56825 27.0925 8.72965C27.253 8.89105 27.3333 9.09105 27.3333 9.32965C27.3333 9.56823 27.253 9.76671 27.0925 9.92511C26.9319 10.0835 26.733 10.1627 26.4957 10.1627H5.50429Z" fill="white"/>
</g>
</svg>
