<?xml version="1.0" encoding="UTF-8"?>
<svg width="120px" height="41px" viewBox="0 0 120 41" version="1.1" xmlns="http://www.w3.org/2000/svg" xmlns:xlink="http://www.w3.org/1999/xlink">
    <!-- Generator: Sketch 58 (84663) - https://sketch.com -->
    <title>Icon_TonsofExtras</title>
    <desc>Created with Sketch.</desc>
    <g id="Cable-TV-Alternative" stroke="none" stroke-width="1" fill="none" fill-rule="evenodd">
        <g id="Sling---Value_Cable-TV-Alternative-Copy" transform="translate(-212.000000, -1226.000000)" fill="#000000">
            <g id="Content_01" transform="translate(117.000000, 808.000000)">
                <g id="Extras,-On-Demand,-Supported-Devices" transform="translate(0.000000, 391.000000)">
                    <g id="03">
                        <g id="Icon_TonsofExtras" transform="translate(95.000000, 26.000000)">
                            <g id="Page-1">
                                <g transform="translate(0.000000, 0.998214)" fill-rule="nonzero">
                                    <path d="M27.00732,34.3400048 L22.32852,34.3400048 L22.32852,22.7645848 L17.27472,22.7645848 L17.27472,34.3400048 L12.58512,34.3400048 L12.58512,7.63178835 L17.26602,7.63178835 L17.26602,18.390727 L22.32852,18.390727 L22.32852,7.63178835 L27.00732,7.63178835 L27.00732,34.3400048 Z M28.95402,20.9153457 C28.95402,12.7687296 31.98372,7.62880522 35.60472,7.0864731 C31.98672,2.66249872 25.94202,0.298372162 20.44992,0.298372162 C14.40552,0.298372162 8.97522,2.90622004 5.23122,7.05186885 C8.80272,7.75558804 10.01712,10.7318519 10.01712,15.3410783 L5.64822,15.3410783 C5.64822,12.6225565 5.08032,11.2136265 3.46122,11.2136265 C2.73282,11.2136265 2.16732,11.5814459 1.83432,12.2037257 C1.78632,12.30903 1.73952,12.4152293 1.69362,12.5208319 C1.56612,12.8677693 1.49802,13.2722811 1.49802,13.7203465 C1.49802,19.3554696 10.80252,19.0741609 10.80252,27.7347694 C10.80252,31.1173348 8.19612,34.269603 5.26062,34.269603 C9.11802,38.4597004 14.38332,40.9679119 20.44992,40.9679119 C26.34612,40.9679119 31.65792,38.4856536 35.39022,34.5145176 C31.94922,33.6532894 28.95402,28.733818 28.95402,20.9153457 L28.95402,20.9153457 Z" id="Fill-1"></path>
                                    <path d="M4.0434,30.0886041 C5.3496,30.0886041 6.2766,28.9439792 6.2766,27.2832735 C6.2766,23.837764 3.2445,23.1737205 0.0006,20.2615939 C-0.0426,26.1571437 1.7919,30.0886041 4.0434,30.0886041" id="Fill-4"></path>
                                    <path d="M33.60483,20.4834488 C33.60483,15.9881778 34.92153,11.4890286 37.32273,11.4890286 C40.17753,11.4890286 40.90023,18.4385166 40.90023,20.6335 C40.90023,25.4530368 39.37413,29.8036263 37.32273,29.8036263 C34.85733,29.8036263 33.60483,25.2218446 33.60483,20.4834488" id="Fill-7"></path>
                                    <polygon id="Fill-9" points="80.34669 8.0005026 76.69059 8.0005026 64.02939 8.0005026 63.44169 8.0005026 60.61809 8.0005026 58.74639 23.253519 58.67169 23.253519 56.58069 8.0005026 52.28859 8.0005026 50.01219 23.253519 49.93929 23.253519 48.25059 8.0005026 43.92159 8.0005026 47.40699 33.9811348 51.58989 33.9811348 53.93859 17.5247258 54.01179 17.5247258 56.28819 33.9811348 60.61809 33.9811348 63.50349 12.0151922 67.55139 12.0151922 67.55139 33.9811348 72.32349 33.9811348 72.32349 12.0151922 76.69059 12.0151922 76.69059 33.9811348 81.46149 33.9811348 81.46149 8.0005026"></polygon>
                                    <polygon id="Fill-11" points="83.80416 8.0005026 90.15336 8.0005026 92.28186 21.3189625 92.35626 21.3189625 94.59426 8.0005026 100.79466 8.0005026 100.79466 33.9811348 96.53916 33.9811348 96.53916 14.9335834 96.46476 14.9335834 93.23646 33.9811348 90.59346 33.9811348 87.40056 14.9335834 87.32946 14.9335834 87.32946 33.9811348 83.80416 33.9811348"></polygon>
                                    <polygon id="Fill-13" points="103.13937 8.0005026 113.92887 8.0005026 113.92887 12.0151922 107.91057 12.0151922 107.91057 18.6553302 112.35057 18.6553302 112.35057 22.8886828 107.91057 22.8886828 107.91057 29.9679368 114.18537 29.9679368 114.18537 33.9811348 103.13937 33.9811348"></polygon>
                                    <path d="M117.07311,33.3566475 C117.39801,33.6838963 117.82611,33.8607956 118.28481,33.8607956 C119.23521,33.8607956 119.99991,33.100397 119.99991,32.1443055 C119.99991,31.7001182 119.82351,31.2711448 119.50641,30.9424044 C119.17191,30.6217185 118.74381,30.4433276 118.28481,30.4433276 C117.82611,30.4433276 117.39801,30.6217185 117.07311,30.9424044 C116.74851,31.2711448 116.56821,31.7001182 116.56821,32.1443055 C116.56821,32.6054966 116.74851,33.0293986 117.07311,33.3566475 M116.82291,32.1443055 C116.82291,31.7606756 116.97651,31.3919613 117.25101,31.1187071 C117.52521,30.8535073 117.89091,30.6980865 118.28481,30.6980865 C118.67811,30.6980865 119.04291,30.8535073 119.32311,31.1187071 C119.59581,31.3919613 119.74761,31.7606756 119.74761,32.1443055 C119.74761,32.9566104 119.09601,33.602457 118.28481,33.602457 C117.89091,33.602457 117.52521,33.4559855 117.25101,33.1848195 C116.97651,32.9085821 116.82291,32.541956 116.82291,32.1443055" id="Fill-15"></path>
                                    <path d="M119.069851,33.1189223 L118.683242,32.2221948 C118.913727,32.1673053 119.052264,31.9620663 119.052264,31.7317692 C119.052264,31.5653108 118.974819,31.4060118 118.84091,31.3081653 C118.707618,31.2106171 118.553653,31.1882438 118.386729,31.1882438 L117.64128,31.1882438 L117.64128,33.1189223 L117.892746,33.1189223 L117.892746,32.2887186 L118.443502,32.2887186 L118.811906,33.1189223 L119.069851,33.1189223 Z M117.892746,32.0918322 L117.892746,31.4030288 L118.386729,31.4030288 C118.489475,31.4030288 118.578954,31.4030288 118.663187,31.4609013 C118.758836,31.5193707 118.808512,31.6193052 118.808512,31.7228198 C118.808512,31.8185781 118.773338,31.9140381 118.699904,31.9859313 C118.604254,32.0864626 118.489475,32.0918322 118.357417,32.0918322 L117.892746,32.0918322 Z" id="Fill-17"></path>
                                </g>
                            </g>
                        </g>
                    </g>
                </g>
            </g>
        </g>
    </g>
</svg>