<?xml version="1.0" encoding="UTF-8"?>
<svg width="73px" height="63px" viewBox="0 0 73 63" version="1.1" xmlns="http://www.w3.org/2000/svg" xmlns:xlink="http://www.w3.org/1999/xlink">
    <!-- Generator: Sketch 58 (84663) - https://sketch.com -->
    <title>Icon_Supported Devices</title>
    <desc>Created with Sketch.</desc>
    <g id="Cable-TV-Alternative" stroke="none" stroke-width="1" fill="none" fill-rule="evenodd">
        <g id="Sling---Value_Cable-TV-Alternative-Copy" transform="translate(-1132.000000, -1214.000000)" fill="#2D2D2D">
            <g id="Content_01" transform="translate(117.000000, 808.000000)">
                <g id="Extras,-On-Demand,-Supported-Devices" transform="translate(0.000000, 391.000000)">
                    <g id="01" transform="translate(897.000000, 0.000000)">
                        <g id="Icon_Supported-Devices" transform="translate(118.000000, 15.000000)">
                            <g id="Shape">
                                <path d="M49.9473684,24.1698113 L25.8754027,10.1433962 L25.8754027,38.1962264 L49.9473684,24.1698113 Z M68.4522019,43.4264151 L4.62620834,43.4264151 L4.62620834,4.91320757 L68.4522019,4.91320757 L68.4522019,43.4264151 Z M73,48.5773585 L73,2.29811318 C73,2.29811318 73,0 70.726101,0 L2.27389904,0 C2.27389904,0 0,0 0,2.29811318 L0,48.4981133 C0,48.4981133 0,50.7962264 2.27389904,50.7962264 L32.6970998,50.7962264 L32.6970998,55.8679245 C25.7969925,56.2641509 20.7003223,57.690566 20.7003223,59.354717 C20.7003223,61.3358491 27.7572503,63 36.5392051,63 C45.2427497,63 52.3780881,61.4150943 52.3780881,59.354717 C52.3780881,57.690566 47.2814178,56.2641509 40.3813104,55.8679245 L40.3813104,50.7962264 L70.8045112,50.7962264 C70.726101,50.7962264 73,50.7962264 73,48.5773585 Z" fill-rule="nonzero"></path>
                            </g>
                        </g>
                    </g>
                </g>
            </g>
        </g>
    </g>
</svg>