<?xml version="1.0" encoding="UTF-8"?>
<svg width="75px" height="68px" viewBox="0 0 75 68" version="1.1" xmlns="http://www.w3.org/2000/svg" xmlns:xlink="http://www.w3.org/1999/xlink">
    <!-- Generator: Sketch 58 (84663) - https://sketch.com -->
    <title>Icon_OnDemand_PayPerView</title>
    <desc>Created with Sketch.</desc>
    <defs>
        <polygon id="path-1" points="0.382650848 0.474492232 26.6237288 0.474492232 26.6237288 19.1633552 0.382650848 19.1633552"></polygon>
    </defs>
    <g id="Cable-TV-Alternative" stroke="none" stroke-width="1" fill="none" fill-rule="evenodd">
        <g id="Sling---Value_Cable-TV-Alternative-Copy" transform="translate(-682.000000, -1211.000000)">
            <g id="Content_01" transform="translate(117.000000, 808.000000)">
                <g id="Extras,-On-Demand,-Supported-Devices" transform="translate(0.000000, 391.000000)">
                    <g id="02" transform="translate(397.000000, 0.000000)">
                        <g id="Icon_OnDemand_PayPerView" transform="translate(168.000000, 12.000000)">
                            <g>
                                <g id="Group-3" transform="translate(48.288135, 48.221222)">
                                    <g id="Fill-1-Clipped">
                                        <mask id="mask-2" fill="white">
                                            <use xlink:href="#path-1"></use>
                                        </mask>
                                        <g id="path-1"></g>
                                        <path d="M21.2300746,0.474492232 C18.2936338,7.67571751 13.9933797,10.9481681 10.0350576,12.335488 C7.20041355,14.9673348 3.94422712,17.1472217 0.382650848,18.7664167 C1.62117628,19.0061518 2.99151526,19.1633552 4.48061695,19.1633552 C11.7447186,19.1633552 21.3227355,15.6891604 26.6239898,2.69237006 L21.2300746,0.474492232 Z" id="Fill-1" fill="#2D2D2D" fill-rule="nonzero" mask="url(#mask-2)"></path>
                                    </g>
                                </g>
                                <path d="M54.7098051,35.3357849 C50.6849237,36.6471232 46.361178,34.4357955 45.0534831,30.3956685 C43.7444831,26.3568514 45.9487712,22.0167277 49.9736526,20.7040795 C51.1025509,20.3346515 52.2523305,20.2534297 53.3551271,20.402773 C55.9535509,24.1756543 57.4909406,28.7345526 57.5483645,33.6550187 C56.7574831,34.3925646 55.8034662,34.9794573 54.7098051,35.3357849 M41.3901102,56.5189418 C40.5039577,55.9975504 39.7039406,55.2979954 39.0618389,54.4111063 C36.5769577,50.9735921 37.3352118,46.1618585 40.7597543,43.6649446 C44.1829915,41.1680307 48.9752628,41.9304671 51.4627543,45.3666713 C52.1139915,46.2679707 52.5303135,47.2635921 52.7469577,48.2867242 C49.8966526,52.0700858 45.9605169,54.9731085 41.3901102,56.5189418 M33.8088729,41.2571126 C32.3093305,41.2571126 31.0942966,40.0374764 31.0942966,38.533564 C31.0942966,37.0296515 32.3093305,35.8100152 33.8088729,35.8100152 C35.3071102,35.8100152 36.5208389,37.0296515 36.5208389,38.533564 C36.5208389,40.0374764 35.3071102,41.2571126 33.8088729,41.2571126 M28.5532966,54.4111063 C27.9125,55.2979954 27.1124831,55.9988605 26.2263305,56.5189418 C21.6559237,54.9731085 17.7210932,52.0727059 14.8707882,48.2906543 C15.0874322,47.2662121 15.5037543,46.2692808 16.1562966,45.3666713 C18.6437882,41.9317771 23.4360594,41.1693408 26.8606017,43.6662546 C30.2838389,46.1631685 31.0420932,50.9735921 28.5532966,54.4111063 M10.0667712,33.6523986 C10.1241949,28.7332426 11.6615847,24.1756543 14.2587034,20.404083 C15.3628051,20.2534297 16.5151949,20.3346515 17.6453983,20.7040795 C21.6689746,22.0180379 23.8719577,26.3568514 22.5642628,30.3982885 C21.2565678,34.4384157 16.932822,36.6484332 12.9079407,35.3357849 C11.8129746,34.9794573 10.8576525,34.3912546 10.0667712,33.6523986 M38.3897203,31.211816 C39.8879577,31.211816 41.1029915,32.4327624 41.1029915,33.9366748 C41.1029915,35.4405871 39.8879577,36.6589135 38.3897203,36.6589135 C36.890178,36.6589135 35.6764491,35.4405871 35.6764491,33.9366748 C35.6764491,32.4327624 36.890178,31.211816 38.3897203,31.211816 M31.9412966,33.9366748 C31.9412966,35.4405871 30.7275678,36.6589135 29.2293305,36.6589135 C27.7310932,36.6589135 26.5147543,35.4405871 26.5147543,33.9366748 C26.5147543,32.4327624 27.7310932,31.211816 29.2293305,31.211816 C30.7275678,31.211816 31.9412966,32.4327624 31.9412966,33.9366748 M31.0942966,29.3371657 C31.0942966,27.8345632 32.3093305,26.6149269 33.8088729,26.6149269 C35.3071102,26.6149269 36.5208389,27.8345632 36.5208389,29.3371657 C36.5208389,30.8423881 35.3071102,32.0607143 33.8088729,32.0607143 C32.3093305,32.0607143 31.0942966,30.8423881 31.0942966,29.3371657 M26.9663135,11.1068125 C29.1340594,10.4517984 31.4283983,10.0915406 33.8075678,10.0915406 C36.1880423,10.0915406 38.4823814,10.4531084 40.6501271,11.1068125 C41.1591102,12.1351847 41.4710254,13.2788393 41.4710254,14.5050258 C41.4710254,18.7521374 38.0412628,22.1975116 33.8088729,22.1975116 C29.5764831,22.1975116 26.1454152,18.7521374 26.1454152,14.5050258 C26.1454152,13.2788393 26.4573305,12.1351847 26.9663135,11.1068125 M67.6157882,33.9366748 C67.6157882,15.1941007 52.4794152,0.000393008474 33.8075678,0.000393008474 C15.1357203,0.000393008474 0.000652542372,15.1941007 0.000652542372,33.9366748 C0.000652542372,52.677939 15.1357203,67.8716465 33.8075678,67.8716465 C52.4794152,67.8716465 67.6157882,52.677939 67.6157882,33.9366748" id="Fill-4" fill="#2D2D2D" fill-rule="nonzero"></path>
                            </g>
                        </g>
                    </g>
                </g>
            </g>
        </g>
    </g>
</svg>