<svg xmlns="http://www.w3.org/2000/svg" focusable="false" fill="currentColor" preserveAspectRatio="xMidYMid meet" height="1em" width="1em" viewBox="0 0 28 28">
  <g>
    <path d="M14,0 C21.7344301,0 28,6.26556992 28,14 C28,21.7344301 21.7344301,28 14,28 C6.26556992,28 0,21.7344301 0,14 C0,6.26556992 6.26556992,0 14,0 Z M14,2.33333333 C7.55423433,2.33333333 2.33333333,7.55423433 2.33333333,14 C2.33333333,20.4457657 7.55423433,25.6666667 14,25.6666667 C20.4457657,25.6666667 25.6666667,20.4457657 25.6666667,14 C25.6666667,7.55423433 20.4457657,2.33333333 14,2.33333333 Z"></path>
    <path d="M15.4,11.6666667 L15.4,21 L12.8333333,21 L12.8333333,11.6666667 L15.4,11.6666667 Z M15.4,7 L15.4,9.56666667 L12.8333333,9.56666667 L12.8333333,7 L15.4,7 Z"></path>
  </g>
</svg>