<?xml version="1.0" encoding="UTF-8"?>
<svg width="64px" height="25px" viewBox="0 0 64 25" version="1.1" xmlns="http://www.w3.org/2000/svg" xmlns:xlink="http://www.w3.org/1999/xlink">
    <title>iOS@3x</title>
    <g id="High-Fidelity-" stroke="none" stroke-width="1" fill="none" fill-rule="evenodd">
        <g id="Icons---Dark" transform="translate(-152.000000, -601.000000)" fill="#171725" fill-rule="nonzero">
            <g id="Group" transform="translate(140.119952, 597.066508)">
                <g id="Group-2" transform="translate(12.804929, 4.816024)">
                    <g id="IOS-Logo.wine" transform="translate(25.655589, 4.680716)">
                        <path d="M0.169867787,18.4219386 L3.19151376,18.4219386 L3.19151376,5.1381777 L0.169867787,5.1381777 L0.169867787,18.4219386 Z M1.67463294,3.3961398 C2.62117676,3.3961398 3.36141261,2.64420822 3.36141261,1.70434188 C3.36141261,0.751899493 2.62117676,0 1.67463294,0 C0.740235851,0 0,0.751931574 0,1.70434188 C0,2.6442403 0.740235851,3.3961398 1.67463294,3.3961398 L1.67463294,3.3961398 Z M13.2519241,0.0375035417 C8.14315354,0.0375035417 4.93933773,3.63418623 4.93933773,9.38644032 C4.93933773,15.1386944 8.14284289,18.7228652 13.2519241,18.7228652 C18.3485791,18.7228652 21.5523949,15.1386944 21.5523949,9.38644032 C21.5523949,3.63418623 18.3488897,0.0375035417 13.2519241,0.0375035417 Z M13.2519241,2.79454321 C16.3706197,2.79454321 18.3606947,5.35107206 18.3606947,9.38637615 C18.3606947,13.4091042 16.3705575,15.9656972 13.2519241,15.9656972 C10.1211129,15.9656972 8.14315354,13.4091684 8.14315354,9.38637615 C8.14315354,5.35113622 10.1211751,2.79454321 13.2519241,2.79454321 Z M22.8270246,13.334033 C22.9605143,16.6676455 25.6059535,18.7228011 29.6347837,18.7228011 C33.8699841,18.7228011 36.5397788,16.5672938 36.5397788,13.1335221 C36.5397788,10.4391702 35.0350136,8.92279516 31.4794709,8.0832163 L29.4650402,7.60699511 C27.3171198,7.08066226 26.4312786,6.37887443 26.4312786,5.17580957 C26.4312786,3.67197851 27.7661449,2.66942446 29.7441353,2.66942446 C31.7464193,2.66942446 33.1175704,3.68452246 33.263269,5.37632038 L36.2485059,5.37632038 C36.1756876,2.19320327 33.6273291,0.0375997869 29.7684909,0.0375997869 C25.9579601,0.0375997869 23.2518183,2.2056189 23.2518183,5.41385601 C23.2518183,7.99544069 24.7808459,9.59955924 28.0086134,10.3640669 L30.2778768,10.9154876 C32.4864687,11.4543644 33.3844567,12.2062639 33.3844567,13.5095842 C33.3844567,15.0134152 31.9161007,16.0911689 29.8047447,16.0911689 C27.6689711,16.0911689 26.0551028,15.0009034 25.8609416,13.3341292 L22.8271799,13.3341292 L22.8270246,13.334033 Z" id="Shape"></path>
                    </g>
                    <g id="apple-black">
                        <path d="M16.232398,12.0191341 C16.2659417,15.4428194 19.4013155,16.5821223 19.4360526,16.5966246 C19.4095415,16.6769329 18.9350713,18.2202009 17.7841868,19.8142877 C16.789257,21.1924955 15.7567343,22.565573 14.1301436,22.5940121 C12.5318539,22.6219261 12.0179155,21.6957553 10.1906168,21.6957553 C8.36387226,21.6957553 7.79286274,22.5656134 6.27990274,22.6219665 C4.709829,22.6783196 3.51419123,21.1316987 2.51107791,19.7585405 C0.461248758,16.9497709 -1.10524472,11.8216356 0.998160529,8.36005837 C2.04308622,6.64102516 3.91044976,5.55246032 5.93730555,5.52454633 C7.47907815,5.49667274 8.93428507,6.50763587 9.87683226,6.50763587 C10.8187827,6.50763587 12.5871775,5.29186241 14.4462724,5.470415 C15.2245536,5.50111635 17.4092394,5.76837968 18.812021,7.71452209 C18.698987,7.78093396 16.2052903,9.1568392 16.232398,12.0191341 M13.2285989,3.6121754 C14.0621612,2.65586875 14.6231971,1.32460166 14.4701408,0 C13.2686212,0.0457692493 11.8157158,0.758848497 10.9538951,1.71463 C10.1815383,2.56101774 9.50512411,3.9157148 9.68763234,5.21409913 C11.0268643,5.31230305 12.3949941,4.569088 13.2285989,3.6121754" id="Shape"></path>
                    </g>
                </g>
            </g>
        </g>
    </g>
</svg>