<?xml version="1.0" encoding="UTF-8"?>
<svg width="55px" height="28px" viewBox="0 0 55 28" version="1.1" xmlns="http://www.w3.org/2000/svg" xmlns:xlink="http://www.w3.org/1999/xlink">
    <!-- Generator: Sketch 46.2 (44496) - http://www.bohemiancoding.com/sketch -->
    <title>LG_Black</title>
    <desc>Created with Sketch.</desc>
    <defs></defs>
    <g id="Devices" stroke="none" stroke-width="1" fill="none" fill-rule="evenodd">
        <g id="LG_Black" fill-rule="nonzero" fill="#000000">
            <g id="lg" transform="translate(5.000000, 4.000000)">
                <g id="LG---White" transform="translate(0.479167, 0.253676)">
                    <g id="Combined-Shape">
                        <path d="M9.74053007,-1.77905763e-05 C15.1203785,-1.77905763e-05 19.4809173,4.34381828 19.4809173,9.7052753 C19.4809173,15.0643306 15.1203785,19.4124364 9.74053007,19.4124364 C4.36077088,19.4124364 -3.57026145e-05,15.0643306 -3.57026145e-05,9.7052753 C-3.57026145e-05,4.34381828 4.36077088,-1.77905763e-05 9.74053007,-1.77905763e-05 Z M7.8006285,6.60553424 C7.8006285,5.96249387 7.27713892,5.4402515 6.63083235,5.4402515 C5.98863157,5.4402515 5.46478498,5.96249387 5.46478498,6.60553424 C5.46478498,7.24617289 5.98863157,7.76841526 6.63083235,7.76841526 C7.27713892,7.76841526 7.8006285,7.24617289 7.8006285,6.60553424 Z M15.5073949,15.4459385 C17.0457312,13.9124798 17.8906336,11.8726123 17.8906336,9.70296253 L17.8906336,9.33238481 L17.5652043,9.33469761 L12.0719108,9.33469761 L12.0719108,10.0885733 L17.1164224,10.0885733 L17.1164224,10.1983411 C16.8572214,14.029097 13.648092,17.0672826 9.74053007,17.0672826 C7.76787137,17.0672826 5.9132098,16.3016652 4.51625576,14.9107979 C3.11903395,13.5201086 2.3502674,11.6709561 2.3502674,9.70296253 C2.3502674,7.73541375 3.11903395,5.88572751 4.51625576,4.49486026 C5.9132098,3.10221396 7.76787137,2.33677441 9.74053007,2.33677441 C9.83005436,2.33677441 10.0378436,2.33864242 10.1273679,2.34122205 L10.1273679,1.58414408 C10.0285609,1.57960748 9.83496348,1.57756156 9.74053007,1.57756156 C5.24789159,1.57756156 1.59069428,5.22320645 1.59069428,9.70296253 C1.59069428,11.8726123 2.43515037,13.9124798 3.97375453,15.4459385 C5.51708929,16.9817989 7.56481275,17.8260507 9.74053007,17.8260507 C11.9162474,17.8260507 13.9641493,16.9817989 15.5073949,15.4459385 Z M12.0670017,13.1952527 L10.1273679,13.1952527 L10.1273679,5.44505495 L9.35333522,5.44505495 L9.35333522,13.9546434 L12.0670017,13.9546434 L12.0670017,13.1952527 Z M26.7582258,3.37038911 L26.7582258,13.4745469 L32.7837561,13.4745469 L32.7837561,15.9179047 L23.8498909,15.9179047 L23.8498909,3.37038911 L26.7582258,3.37038911 Z M39.1825751,11.135353 L39.1825751,8.79509162 L44.2312817,8.79509162 L44.2312817,14.8822263 C43.1926034,15.6071033 41.2809961,16.1039052 39.3282417,16.1039052 C35.0682057,16.1039052 33.136248,13.8261777 33.136248,9.62253134 C33.136248,5.39798108 35.2767982,3.183677 39.3486813,3.183677 C41.1563939,3.183677 43.0881732,3.66046446 44.1904023,5.23324034 L42.3821541,6.889543 C41.6963962,6.01967277 40.8657748,5.56458984 39.4107148,5.56458984 C36.7929991,5.56458984 35.9621991,7.076433 35.9621991,9.64334631 C35.9621991,12.3348826 36.8348602,13.6606363 39.452933,13.6606363 C40.26365,13.6606363 41.114979,13.4949171 41.5510863,13.3286642 L41.5510863,11.135353 L39.1825751,11.135353 Z" id="Shape"></path>
                    </g>
                </g>
            </g>
        </g>
    </g>
</svg>