<svg width="56" height="32" viewBox="0 0 56 32" fill="none" xmlns="http://www.w3.org/2000/svg">
<path fill-rule="evenodd" clip-rule="evenodd" d="M14.013 25.4608V5.22045C14.013 5.0817 14.1165 4.97185 14.2473 4.97185H17.4681C17.5989 4.97185 17.7024 5.0817 17.7024 5.22045V25.4608C17.7024 25.5995 17.5989 25.7094 17.4681 25.7094H14.2473C14.1165 25.7094 14.013 25.5995 14.013 25.4608ZM6.14355 13.7763C4.80837 13.7763 3.93642 14.2503 3.93642 14.9094C3.93642 15.8155 5.18025 16.0991 6.70489 16.4467C9.11998 16.9973 12.2397 17.7086 12.2363 21.3093C12.2363 24.0438 10.0619 26.0789 6.1708 26.0789C3.84922 26.0789 1.60394 25.2926 0.116165 23.9687C-0.00917798 23.8531 -0.0364266 23.6623 0.0507689 23.512L1.28785 21.3324C1.39685 21.1416 1.63664 21.0954 1.80013 21.2341C2.89007 22.1534 4.76477 22.8182 6.35064 22.8182C7.94741 22.8182 8.69947 22.2227 8.69947 21.5232C8.69947 20.5019 7.37442 20.2078 5.7811 19.8541C3.37888 19.321 0.366852 18.6524 0.366852 15.1522C0.366852 12.6547 2.43229 10.4693 6.1163 10.4693C8.36158 10.4693 10.1709 11.2383 11.5115 12.3078C11.6423 12.4119 11.6805 12.6084 11.5987 12.7645L10.5142 15.0597C10.4052 15.262 10.1491 15.3083 9.9856 15.158C9.0973 14.3486 7.66402 13.7763 6.14355 13.7763ZM20.2587 10.7133V25.4499C20.2587 25.5886 20.3622 25.6985 20.493 25.6985H23.7138C23.8446 25.6985 23.9481 25.5886 23.9481 25.4499V10.7133C23.9481 10.5746 23.8446 10.4647 23.7138 10.4647H20.493C20.3677 10.4705 20.2587 10.5804 20.2587 10.7133ZM36.1873 25.6977C36.0565 25.6977 35.953 25.5879 35.953 25.4491H35.9475V16.8234C35.9475 14.7595 34.6886 13.9328 33.1845 13.9328C31.4188 13.9328 30.1708 15.5573 30.1708 17.3611V25.4491C30.1708 25.5879 30.0673 25.6977 29.9365 25.6977H26.7157C26.5849 25.6977 26.4814 25.5879 26.4814 25.4491V10.7126C26.4814 10.5739 26.5849 10.464 26.7157 10.464H29.9365C30.0673 10.464 30.1708 10.5739 30.1708 10.7126V12.7534C30.7267 11.6665 32.2744 10.4409 34.5687 10.4409C37.6478 10.4409 39.6424 12.9095 39.6424 15.8059V25.4491C39.6424 25.5879 39.5389 25.6977 39.4081 25.6977H36.1873ZM42.2529 29.6008C42.193 29.7048 42.2093 29.8378 42.2965 29.9187C43.9968 31.445 45.8443 32 48.1876 32C51.6428 32 55.7682 30.3523 55.7682 24.6809V11.0601C55.7682 10.9214 55.6647 10.8115 55.5339 10.8115H52.2804C52.1496 10.8115 52.046 10.9214 52.046 11.0601V12.7251C51.1359 11.1526 49.5664 10.4473 47.8825 10.4473C44.3401 10.4473 41.5281 13.6328 41.5281 18.5007C41.5281 22.5476 44.2039 26.0799 47.8825 26.0799C49.6209 26.0799 50.9398 25.2185 52.046 23.7385V24.7792C52.046 27.7045 49.9534 28.8029 48.1822 28.8029C46.5146 28.8029 45.1031 28.3404 43.9968 27.1784C43.8933 27.0685 43.7134 27.0917 43.6371 27.2246L42.2529 29.6008ZM45.3436 18.0725C45.3436 20.6278 46.7932 22.1251 48.8859 22.1251C50.8042 22.1251 52.0522 20.2983 52.0522 18.0725C52.0522 15.8467 50.7988 13.9273 48.8859 13.9273C46.7987 13.9273 45.3436 15.5171 45.3436 18.0725Z" fill="white"/>
<path d="M19.909 4.58395C19.9199 3.27159 20.9335 2.22518 22.1706 2.23674C23.4077 2.2483 24.3941 3.32363 24.3832 4.63598C24.3723 5.91365 23.3586 6.99475 22.1215 6.98319C20.8845 6.97163 19.8981 5.8674 19.909 4.58395Z" fill="white"/>
<path d="M26.8472 7.13891C27.9644 6.8614 28.8037 5.83811 28.82 4.60091V4.58357C28.8255 3.34637 28.008 2.29995 26.8963 1.99933C26.7873 1.97042 26.6565 2.0398 26.7273 2.18433C27.1851 3.03996 27.2941 3.94763 27.2886 4.57779C27.2832 5.20217 27.1524 6.10983 26.6783 6.9539C26.6074 7.09265 26.7328 7.16781 26.8472 7.13891Z" fill="white"/>
<path d="M31.0533 8.14564C32.6174 7.76407 33.7836 6.33031 33.8109 4.6017V4.57857C33.8163 2.84996 32.6773 1.39307 31.1242 0.971039C30.9661 0.93057 30.7863 1.02885 30.8898 1.22542C31.5274 2.41636 31.6855 3.68825 31.6746 4.56123C31.6637 5.4342 31.4784 6.70609 30.819 7.8797C30.7209 8.08204 30.8953 8.1861 31.0533 8.14564Z" fill="white"/>
<path d="M35.55 0.335266C36.3566 1.84419 36.5582 3.45717 36.5473 4.5614C36.5364 5.67141 36.3021 7.27283 35.4628 8.76441C35.332 9.00722 35.5555 9.20957 35.7517 9.16332C37.7299 8.67769 39.2122 6.79298 39.2449 4.60765V4.57874C39.2558 2.39341 37.8117 0.543393 35.8443 0.0115128C35.6536 -0.0405189 35.4247 0.0866698 35.55 0.335266Z" fill="white"/>
<path d="M54.2103 31.9996H54.401V31.2306H54.6572V31.0514H53.9487V31.2306H54.2103V31.9996Z" fill="white"/>
<path d="M55.4694 31.6232L55.5784 31.3226V31.999H55.7691V31.0566H55.5021L55.2841 31.6463L55.0661 31.0566H54.799V31.999H54.9898V31.3226L55.2405 31.999H55.3222L55.4694 31.6232Z" fill="white"/>
</svg>
