<svg xmlns="http://www.w3.org/2000/svg" focusable="false" fill="#0078ad"
    preserveAspectRatio="xMidYMid meet" height="1em"
    width="1em" viewBox="0 0 19 22" data-test-id="zipheader-header-adobe-commerce-signIn-icon"
    style="vertical-align: middle;">
    <g>
        <title>B18C99AF-60A8-4B54-A3B8-24EFE91BF93F@3x</title>
        <g id="Component-Sticker-Sheet" stroke="none" stroke-width="1" fill-rule="evenodd">
            <g id="8.-Icons" transform="translate(-149.000000, -224.000000)" fill-rule="nonzero">
                <g id="Profile/Unfilled" transform="translate(149.121951, 224.073171)">
                    <path
                        d="M9.36019418,0 C6.53213818,0 4.23885618,2.29351908 4.23885618,5.12195122 C4.23885618,7.95038336 6.53213818,10.2439024 9.36019418,10.2439024 C12.1892395,10.2439024 14.4827586,7.95062042 14.4827586,5.12195122 C14.4827586,2.29328202 12.1892395,0 9.36019418,0 Z M9.36019418,2.04878049 C11.0577767,2.04878049 12.4339781,3.42483964 12.4339781,5.12195122 C12.4339781,6.8190628 11.0577767,8.19512195 9.36019418,8.19512195 C7.66369582,8.19512195 6.28763667,6.81892054 6.28763667,5.12195122 C6.28763667,3.42498189 7.66369582,2.04878049 9.36019418,2.04878049 Z"
                        id="Stroke-3"></path>
                    <path
                        d="M9.21828575,11.6097561 C4.1468943,11.6097561 0,15.4114689 0,20.1463415 C0,20.7120966 0.458635134,21.1707317 1.02439024,21.1707317 L17.4146341,21.1707317 C17.9803893,21.1707317 18.4390244,20.7120966 18.4390244,20.1463415 C18.4390244,15.8990225 14.0505126,11.6097561 9.21828575,11.6097561 Z M9.40675312,13.661434 C12.6065015,13.7596423 15.5786482,16.3389873 16.2494555,19.0355023 L16.2693659,19.1219512 L2.1382439,19.1219512 L2.14527725,19.0818506 C2.70608568,16.0197655 5.64508211,13.6585366 9.21828575,13.6585366 L9.40675312,13.661434 Z"
                        id="Stroke-3-Copy"></path>
                </g>
            </g>
        </g>
    </g>
</svg>