<?xml version="1.0" encoding="UTF-8"?>
<svg width="56px" height="20px" viewBox="0 0 56 20" version="1.1" xmlns="http://www.w3.org/2000/svg" xmlns:xlink="http://www.w3.org/1999/xlink">
    <title>Roku@3x</title>
    <defs>
        <polygon id="path-1" points="1.87792366e-15 6.51106568e-15 68.505072 6.51106568e-15 68.505072 33.9049881 2.566732e-14 33.9049881 2.566732e-14 6.51106568e-15"></polygon>
    </defs>
    <g id="High-Fidelity-" stroke="none" stroke-width="1" fill="none" fill-rule="evenodd">
        <g id="Icons---Dark" transform="translate(-154.000000, -201.000000)">
            <g id="Group" transform="translate(140.119952, 194.553444)">
                <g id="Roku_logo" transform="translate(7.476680, 0.000000)">
                    <mask id="mask-2" fill="white">
                        <use xlink:href="#path-1"></use>
                    </mask>
                    <g id="path3019" transform="translate(34.252536, 16.952494) scale(-1, 1) rotate(-180.000000) translate(-34.252536, -16.952494) "></g>
                    <g id="g3015" mask="url(#mask-2)">
                        <g transform="translate(34.252536, 16.494319) scale(-1, 1) rotate(-180.000000) translate(-34.252536, -16.494319) translate(6.765933, 7.330808)">
                            <g id="g3021" transform="translate(0.000000, 0.283978)">
                                <path d="M8.65810817,12.0169351 C8.65810817,13.693831 7.40168849,15.0442792 5.86537129,15.0442792 L4.48043997,15.0442792 L4.48043997,9.01638558 L5.86537129,9.01638558 C7.40168849,9.01638558 8.65810817,10.367727 8.65810817,12.0169351 M14.95809,0 L9.874186,0 L5.8379222,6.01449633 L4.48043997,6.01449633 L4.48043997,0.0129507272 L0,0.0129507272 L0,18.0430424 L6.41851203,18.0430424 C10.1187324,18.0430424 13.138964,15.3412528 13.138964,12.0169351 C13.138964,9.98947642 11.9811115,8.1786075 10.2189632,7.07065046 L14.95809,0" id="path3023" fill="#171725" fill-rule="nonzero"></path>
                            </g>
                            <g id="g3025" transform="translate(13.138756, 0.000000)">
                                <path d="M6.87225379,11.2189024 C5.68903169,11.2189024 4.68256508,9.49198987 4.68256508,7.35422673 C4.68256508,5.21646359 5.68903169,3.48731823 6.87225379,3.48731823 C8.08292498,3.48731823 9.087728,5.21646359 9.087728,7.35422673 C9.087728,9.49198987 8.08292498,11.2189024 6.87225379,11.2189024 M13.7686295,7.35422673 C13.7686295,3.2702819 10.6756162,0 6.87225379,0 C3.07013904,0 0,3.2702819 0,7.35422673 C0,11.4350455 3.07013904,14.7071137 6.87225379,14.7071137 C10.6756162,14.7071137 13.7686295,11.4350455 13.7686295,7.35422673" id="path3027" fill="#171725" fill-rule="nonzero"></path>
                            </g>
                            <g id="g3029" transform="translate(27.780724, 0.000134)">
                                <path d="M9.64086874,14.4079073 L4.47960818,8.86678235 L4.47960818,14.4262169 L0,14.4262169 L0,0.296973572 L4.47960818,0.296973572 L4.47960818,6.02834021 L9.86794757,0.296973572 L15.50624,0.296973572 L8.65893996,7.65030715 L14.330504,13.7380421 L14.330504,5.35311609 C14.330504,2.56915633 15.8896955,0 19.8161629,0 C21.6802056,0 23.390783,1.13519822 24.2221576,2.16232486 L26.2363385,0.296973572 L27.1924818,0.296973572 L27.1924818,14.4079073 L22.7128736,14.4079073 L22.7128736,7.05636001 L22.7128736,5.27183912 C22.2083926,4.32643603 21.5055296,3.73204231 20.4192111,3.73204231 C19.3170886,3.73204231 18.8113599,4.43361446 18.8113599,6.67766288 L18.8113599,7.26982372 L18.8113599,14.4079073 L9.64086874,14.4079073 Z" id="path3031" fill="#171725" fill-rule="nonzero"></path>
                            </g>
                        </g>
                    </g>
                </g>
            </g>
        </g>
    </g>
</svg>