<?xml version="1.0" encoding="UTF-8"?>
<svg width="88px" height="13px" viewBox="0 0 88 13" version="1.1" xmlns="http://www.w3.org/2000/svg" xmlns:xlink="http://www.w3.org/1999/xlink">
    <title>Samsung@3x</title>
    <g id="High-Fidelity-" stroke="none" stroke-width="1" fill="none" fill-rule="evenodd">
        <g id="Icons---Dark" transform="translate(-140.000000, -155.000000)" fill="#171725" fill-rule="nonzero">
            <g id="Group" transform="translate(140.119952, 145.000000)">
                <g id="samsung-1" transform="translate(0.000000, 10.816735)">
                    <path d="M48.1491347,5.29462282 C48.1491347,5.29462282 47.2948602,4.8261366 46.7666237,4.64486548 C46.7666237,4.64486548 45.1315018,3.97275299 44.8071076,3.65297713 C44.8071076,3.65297713 44.1698265,3.12034134 44.5429894,2.50168683 C44.5429894,2.50168683 44.6991589,2.09686419 45.3726055,2.09686419 C45.3726055,2.09686419 46.2493465,2.13963057 46.2493465,2.77869631 L46.2493465,3.68019209 L49.3913671,3.68019209 L49.3858874,2.35249049 C49.3858874,2.35249049 49.6275392,0.178209016 45.6849445,0.08247065 C45.6849445,0.08247065 42.5840212,-0.0983144881 41.6946771,1.38295729 C41.6946771,1.38295729 41.3456246,1.71342475 41.3456246,2.86422906 L41.3456246,3.6957435 C41.3456246,3.6957435 41.310007,4.65507109 41.8623538,5.27323963 C41.8623538,5.27323963 42.1746928,5.67854824 42.944033,6.12565127 C42.944033,6.12565127 44.5062758,6.87163296 45.4438407,7.29881074 C45.4438407,7.29881074 46.390173,7.77798856 46.2657854,8.54049361 C46.2657854,8.54049361 46.1885226,9.3234099 45.2745201,9.29133512 C45.2745201,9.29133512 44.4388764,9.25828837 44.4388764,8.49043751 L44.4388764,7.58942771 L41.0908217,7.58942771 L41.0908217,8.89817604 C41.0908217,8.89817604 40.99712,11.400981 45.2991785,11.400981 C45.2991785,11.400981 49.4099978,11.4748502 49.6017849,8.83256853 L49.6017849,7.76681098 C49.6012369,7.76681098 49.7469951,6.14752044 48.1491347,5.29462282 L48.1491347,5.29462282 Z M32.0631293,0.393984826 L31.0110401,6.24131488 L30.7650047,6.24131488 L29.7600403,0.446470834 L24.5116496,0.446470834 L24.2486273,11.0355229 L27.3561261,11.0355229 L27.3933876,3.05716374 L27.6377792,3.05716374 L29.2849563,11.034065 L32.5541043,11.034065 L34.1810068,3.06007963 L34.3974522,3.06007963 L34.4725231,11.0355229 L37.5964609,11.0355229 L37.2600115,0.393984826 L32.0631293,0.393984826 L32.0631293,0.393984826 Z M13.5649903,0.438209147 L11.4975255,11.0233734 L14.8428403,11.0233734 L16.0675379,2.81611689 L16.3426154,2.81611689 L17.566765,11.0233734 L20.9115319,11.0233734 L18.844615,0.438209147 L13.5649903,0.438209147 L13.5649903,0.438209147 Z M83.7601619,5.14882835 L83.7601619,6.71028708 L84.6182721,6.71028708 L84.6182721,8.38643746 C84.6182721,9.20580236 83.8286573,9.22086779 83.8286573,9.22086779 C82.8686259,9.22086779 82.9047915,8.44232534 82.9047915,8.44232534 L82.9047915,2.6445654 C82.9047915,2.04729407 83.7568741,2.01521929 83.7568741,2.01521929 C84.5744351,2.01521929 84.5799147,2.72766825 84.5799147,2.72766825 L84.5799147,3.60923879 L87.7296067,3.60923879 C87.8326238,1.8883781 87.4457618,1.47189191 87.4457618,1.47189191 C86.6643664,-0.084221023 83.7086534,0.000825748909 83.7086534,0.000825748909 C79.1665871,0.000825748909 79.6707131,3.09166843 79.6707131,3.09166843 L79.6707131,8.69746566 C79.7682506,11.5963456 84.2440133,11.3018408 84.3196322,11.2994109 C86.3103823,11.1040463 86.9114978,10.5427376 86.9114978,10.5427376 C87.4649406,10.1782515 87.607411,9.67331662 87.607411,9.67331662 C87.7657723,9.37929778 87.8052257,8.44232534 87.8052257,8.44232534 L87.8052257,5.14882835 L83.7601619,5.14882835 L83.7601619,5.14882835 Z M73.3198206,6.87163296 L73.1828298,6.87163296 L69.9865609,0.396900715 L66.1623263,0.396900715 L66.1623263,11.0364949 L69.2747568,11.0364949 L69.0884494,4.5627346 L69.227632,4.5627346 L72.5389731,11.0364949 L76.2470396,11.0364949 L76.2470396,0.395928752 L73.0951557,0.395928752 L73.3198206,6.87163296 L73.3198206,6.87163296 Z M58.5648176,8.3854655 C58.5648176,8.3854655 58.6097506,9.25877435 57.6968441,9.25877435 C57.6968441,9.25877435 56.7368127,9.30445662 56.7368127,8.40733467 L56.7269493,0.403218476 L53.3131391,0.403218476 L53.3131391,8.34367109 C53.3131391,8.34367109 52.9629907,11.3490182 57.7450648,11.3490182 C57.7450648,11.3490182 61.9008171,11.3927194 61.9008171,8.48168985 L61.9008171,0.403704457 L58.5648176,0.403704457 L58.5648176,8.3854655 L58.5648176,8.3854655 Z M7.05683233,5.29462282 C7.05683233,5.29462282 6.20365375,4.8261366 5.67486934,4.64535146 C5.67486934,4.64535146 4.04084332,3.97372495 3.71644915,3.65346311 C3.71644915,3.65346311 3.07916804,3.11985536 3.45287889,2.50265879 C3.45287889,2.50265879 3.60850042,2.09783615 4.28139913,2.09783615 C4.28139913,2.09783615 5.15868808,2.14011655 5.15868808,2.77918229 L5.15868808,3.68067808 L8.30180454,3.68067808 L8.29577695,2.35249049 C8.29577695,2.35249049 8.53578479,0.178209016 4.59483403,0.0829566315 C4.59483403,0.0829566315 4.29783802,0.0659472771 3.86220734,0.0853865393 C3.86220734,0.0853865393 1.47473203,0.199106223 0.621005488,1.36060214 C0.61607382,1.3693498 0.608950299,1.37566757 0.604018631,1.38344327 C0.604018631,1.38344327 0.255514087,1.71342475 0.255514087,2.86471505 L0.255514087,3.69622949 C0.255514087,3.69622949 0.219348521,4.65555707 0.772243309,5.27372561 C0.772243309,5.27372561 1.08458229,5.67903423 1.85392251,6.12613725 C1.85392251,6.12613725 3.4156174,6.87211894 4.3531823,7.29929673 C4.3531823,7.29929673 5.30061053,7.77750258 5.17512698,8.5409796 C5.17512698,8.5409796 5.09786418,9.32389588 4.18440966,9.2918211 C4.18440966,9.2918211 3.3487659,9.25877435 3.3487659,8.4909235 L3.3487659,7.58942771 L0.000163272763,7.58942771 L0.000163272763,8.899148 C0.000163272763,8.899148 -0.0935384208,11.401953 4.20852003,11.401953 C4.20852003,11.401953 8.31824343,11.4758222 8.51167442,8.83354049 L8.51167442,7.76875491 C8.51167442,7.76778294 8.65524075,6.14752044 7.05683233,5.29462282 L7.05683233,5.29462282 Z" id="Shape"></path>
                </g>
            </g>
        </g>
    </g>
</svg>