<svg width="32" height="32" viewBox="0 0 32 32" fill="none" xmlns="http://www.w3.org/2000/svg">
<mask id="mask0_3344_5506" style="mask-type:alpha" maskUnits="userSpaceOnUse" x="0" y="0" width="32" height="32">
<rect width="32" height="32" fill="#D9D9D9"/>
</mask>
<g mask="url(#mask0_3344_5506)">
<path d="M8.03044 23.0561C9.16377 22.2151 10.3984 21.551 11.7343 21.0638C13.0702 20.5766 14.492 20.333 15.9996 20.333C17.5073 20.333 18.9291 20.5766 20.265 21.0638C21.6009 21.551 22.8355 22.2151 23.9688 23.0561C24.7979 22.145 25.4548 21.0903 25.9394 19.892C26.424 18.6937 26.6663 17.3962 26.6663 15.9996C26.6663 13.0441 25.6274 10.5274 23.5496 8.44964C21.4719 6.37186 18.9552 5.33298 15.9996 5.33298C13.0441 5.33298 10.5274 6.37186 8.44964 8.44964C6.37186 10.5274 5.33297 13.0441 5.33297 15.9996C5.33297 17.3962 5.57529 18.6937 6.05991 19.892C6.54453 21.0903 7.20137 22.145 8.03044 23.0561ZM16 16.9996C14.7827 16.9996 13.7561 16.5818 12.9202 15.7462C12.0843 14.9105 11.6663 13.884 11.6663 12.6667C11.6663 11.4494 12.0842 10.4227 12.9198 9.58684C13.7554 8.75095 14.7819 8.33301 15.9992 8.33301C17.2166 8.33301 18.2432 8.75082 19.0791 9.58644C19.915 10.4221 20.3329 11.4486 20.3329 12.6659C20.3329 13.8833 19.9151 14.9099 19.0795 15.7458C18.2439 16.5817 17.2174 16.9996 16 16.9996ZM15.9996 28.6663C14.2407 28.6663 12.5907 28.3355 11.0497 27.6739C9.50865 27.0124 8.16805 26.1116 7.02787 24.9714C5.88772 23.8312 4.98687 22.4906 4.32534 20.9496C3.66379 19.4086 3.33301 17.7586 3.33301 15.9996C3.33301 14.2407 3.66379 12.5907 4.32534 11.0497C4.98687 9.50865 5.88772 8.16805 7.02787 7.02787C8.16805 5.88772 9.50865 4.98688 11.0497 4.32534C12.5907 3.66379 14.2407 3.33301 15.9996 3.33301C17.7586 3.33301 19.4086 3.66379 20.9496 4.32534C22.4906 4.98688 23.8312 5.88772 24.9714 7.02787C26.1116 8.16805 27.0124 9.50865 27.6739 11.0497C28.3355 12.5907 28.6663 14.2407 28.6663 15.9996C28.6663 17.7586 28.3355 19.4086 27.6739 20.9496C27.0124 22.4906 26.1116 23.8312 24.9714 24.9714C23.8312 26.1116 22.4906 27.0124 20.9496 27.6739C19.4086 28.3355 17.7586 28.6663 15.9996 28.6663ZM15.9996 26.6663C17.2031 26.6663 18.3633 26.4727 19.4804 26.0855C20.5975 25.6984 21.5894 25.1569 22.4561 24.4612C21.5894 23.7911 20.6103 23.2689 19.5189 22.8945C18.4274 22.5201 17.2544 22.3329 15.9996 22.3329C14.7449 22.3329 13.5697 22.518 12.474 22.8881C11.3782 23.2582 10.4013 23.7825 9.54321 24.4612C10.4099 25.1569 11.4018 25.6984 12.5189 26.0855C13.636 26.4727 14.7962 26.6663 15.9996 26.6663ZM15.9996 14.9997C16.6629 14.9997 17.2176 14.7766 17.6638 14.3304C18.1099 13.8843 18.333 13.3296 18.333 12.6663C18.333 12.0031 18.1099 11.4484 17.6638 11.0022C17.2176 10.556 16.6629 10.3329 15.9996 10.3329C15.3364 10.3329 14.7817 10.556 14.3355 11.0022C13.8894 11.4484 13.6663 12.0031 13.6663 12.6663C13.6663 13.3296 13.8894 13.8843 14.3355 14.3304C14.7817 14.7766 15.3364 14.9997 15.9996 14.9997Z" fill="#F5F5F6"/>
</g>
</svg>
