<svg width="1201" height="551" viewBox="0 0 1201 551" fill="none" xmlns="http://www.w3.org/2000/svg">
<mask id="mask0_16_827" style="mask-type:alpha" maskUnits="userSpaceOnUse" x="0" y="0" width="1201" height="551">
<rect x="0.453125" y="0.59668" width="1200" height="549.807" fill="url(#paint0_linear_16_827)"/>
</mask>
<g mask="url(#mask0_16_827)">
<path d="M356.814 97.56V431.613C356.814 433.875 358.609 435.738 360.935 435.738H417.312C419.572 435.738 421.434 433.941 421.434 431.613V97.56C421.434 95.2979 419.639 93.435 417.312 93.435H360.935C358.675 93.435 356.814 95.2314 356.814 97.56ZM180.571 257.501C180.571 246.656 195.862 238.739 219.197 238.739C245.856 238.739 270.853 248.186 286.476 261.493C289.401 263.954 293.789 263.156 295.651 259.896L314.664 222.04C316.127 219.511 315.462 216.185 313.069 214.455C289.534 196.758 257.956 184.05 218.598 184.05C154.111 184.05 118.012 220.11 118.012 261.36C118.012 357.497 263.739 324.231 263.739 366.545C263.739 378.122 250.51 387.902 222.587 387.902C194.798 387.902 162.023 376.991 143.009 361.755C140.15 359.493 136.028 360.291 134.034 363.352L112.494 399.611C111.031 402.073 111.497 405.266 113.69 407.063C139.751 428.951 178.975 441.858 219.662 441.858C287.673 441.858 325.833 408.327 325.833 363.086C325.833 266.283 180.571 296.155 180.571 257.501ZM466.242 188.242V431.546C466.242 433.808 468.037 435.671 470.364 435.671H526.741C529.001 435.671 530.862 433.875 530.862 431.546V188.242C530.862 185.98 529.067 184.117 526.741 184.117H470.364C468.104 184.117 466.242 185.98 466.242 188.242ZM740.745 431.546C740.745 433.808 742.54 435.671 744.867 435.671H801.243C803.503 435.671 805.365 433.875 805.365 431.546V272.337C805.365 224.501 770.462 183.784 716.545 183.784C676.324 183.784 649.266 204.01 639.626 221.973V188.308C639.626 186.046 637.831 184.183 635.504 184.183H579.128C576.868 184.183 575.006 185.98 575.006 188.308V431.613C575.006 433.875 576.801 435.738 579.128 435.738H635.504C637.765 435.738 639.626 433.941 639.626 431.613V298.018C639.626 268.212 661.499 241.4 692.413 241.4C718.673 241.4 740.811 255.106 740.811 289.169V431.546H740.745ZM851.104 500.007C850.107 501.736 850.373 503.932 851.902 505.263C881.686 530.478 914.062 539.593 955.015 539.593C1015.51 539.593 1087.71 512.381 1087.71 418.772V193.964C1087.71 191.701 1085.92 189.839 1083.59 189.839H1026.62C1024.36 189.839 1022.49 191.635 1022.49 193.964V221.441C1006.6 195.494 979.148 183.784 949.63 183.784C887.603 183.784 838.406 236.344 838.406 316.713C838.406 383.444 885.276 441.858 949.63 441.858C980.079 441.858 1003.21 427.621 1022.49 403.204V420.369C1022.49 468.67 985.929 486.7 954.882 486.7C925.697 486.7 901.032 479.049 881.686 459.888C879.824 458.092 876.7 458.425 875.37 460.62L851.038 500.007H851.104ZM967.181 376.591C930.616 376.591 905.154 351.975 905.154 309.661C905.154 267.347 930.55 241.267 967.181 241.267C1000.69 241.267 1022.63 273.002 1022.63 309.661C1022.63 346.32 1000.69 376.591 967.181 376.591ZM1060.32 539.593H1063.65V526.952H1068.23V524.024H1055.8V526.952H1060.39V539.593H1060.32ZM1082.33 533.405L1084.32 528.415V539.593H1087.65V524.024H1082.99L1079.2 533.738L1075.41 524.024H1070.76V539.593H1074.08V528.415L1078.47 539.593H1079.87L1082.33 533.405ZM459.993 87.1146C460.259 65.492 477.943 48.1273 499.55 48.3935C521.156 48.6596 538.508 66.3569 538.242 87.9795C537.976 109.07 520.292 126.967 498.685 126.701C477.079 126.434 459.727 108.205 459.993 87.1146ZM578.53 126.168C586.773 112.263 589.1 97.2273 589.233 86.915C589.366 76.6027 587.372 61.5666 579.394 47.462C578.131 45.2 580.325 44.0024 582.319 44.4681C601.798 49.458 616.092 66.7561 615.959 87.1146V87.3807C615.626 107.739 601 124.705 581.455 129.229C579.46 129.694 577.2 128.43 578.53 126.168ZM651.128 141.67C662.695 122.243 665.887 101.286 666.086 86.915C666.285 72.5443 663.493 51.5204 652.324 31.8272C650.529 28.5672 653.654 26.9704 656.446 27.6358C683.571 34.555 703.582 58.6393 703.382 87.1146V87.4472C702.917 115.923 682.374 139.541 655.117 145.928C652.391 146.527 649.266 144.731 651.194 141.67H651.128ZM738.95 11.5352C773.387 20.2508 798.65 50.7886 798.517 86.915V87.3807C797.985 123.507 771.991 154.577 737.421 162.627C733.964 163.492 730.041 160.099 732.302 156.107C746.928 131.491 751.049 104.945 751.249 86.7154C751.382 68.3528 747.858 41.8734 733.764 16.9243C731.504 12.7993 735.493 10.7369 738.95 11.6018V11.5352Z" fill="#00B9FF"/>
</g>
<defs>
<linearGradient id="paint0_linear_16_827" x1="600.453" y1="0.59668" x2="600.453" y2="550.404" gradientUnits="userSpaceOnUse">
<stop stop-color="#484848"/>
<stop offset="1"/>
</linearGradient>
</defs>
</svg>
