<?xml version="1.0" encoding="utf-8"?>
<!-- Generator: Adobe Illustrator 24.1.1, SVG Export Plug-In . SVG Version: 6.00 Build 0)  -->
<svg version="1.1" id="Layer_1" xmlns="http://www.w3.org/2000/svg" xmlns:xlink="http://www.w3.org/1999/xlink" x="0px" y="0px"
	 viewBox="0 0 55 28" style="enable-background:new 0 0 55 28;" xml:space="preserve">
<g>
	<path d="M20.42,5.59h3.89c1.12,0,1.43,0.33,1.43,1.39v3.07c0,1.07-0.33,1.38-1.43,1.38h-3.89c-1.12,0-1.43-0.29-1.43-1.38V6.98
		C18.99,5.92,19.31,5.59,20.42,5.59 M24.39,6.63h-4.04v3.76h4.04V6.63z"/>
	<polygon points="16.67,5.59 14.42,9.76 12.17,5.59 10.64,5.59 13.85,11.43 14.99,11.43 18.2,5.59 	"/>
	<polygon points="4.61,11.43 3.25,11.43 3.25,6.63 0.57,6.63 0.57,5.59 7.3,5.59 7.3,6.63 4.61,6.63 	"/>
	<rect x="8.32" y="6.93" width="1.35" height="4.5"/>
	<rect x="8.32" y="5.59" width="1.35" height="1.04"/>
	<path d="M16.83,12.45c-0.75,0.33-1.56,0.51-2.41,0.51c-0.85,0-1.67-0.18-2.41-0.51l-0.26,0.46c0.83,0.36,1.73,0.55,2.68,0.55
		c0.95,0,1.85-0.2,2.68-0.55L16.83,12.45z"/>
	<path d="M3.44,22.41c-1.04,0-2.09-0.36-2.91-1.1l0.89-1.07c0.62,0.51,1.26,0.83,2.05,0.83c0.62,0,0.99-0.24,0.99-0.65v-0.02
		c0-0.38-0.24-0.58-1.38-0.87c-1.38-0.35-2.27-0.73-2.27-2.1v-0.02c0-1.24,1-2.07,2.4-2.07c1,0,1.85,0.31,2.55,0.87l-0.78,1.14
		c-0.61-0.42-1.2-0.68-1.78-0.68s-0.88,0.26-0.88,0.6v0.02c0,0.45,0.29,0.6,1.48,0.9c1.39,0.36,2.17,0.86,2.17,2.06v0.02
		C5.96,21.65,4.92,22.41,3.44,22.41"/>
	<polygon points="10.23,16.85 10.23,22.31 8.72,22.31 8.72,16.85 6.64,16.85 6.64,15.45 12.32,15.45 12.32,16.85 	"/>
	<path d="M17.64,22.31l-1.47-2.19h-1.19v2.19h-1.51v-6.86h3.14c1.62,0,2.59,0.85,2.59,2.26v0.02c0,1.11-0.6,1.8-1.47,2.13l1.68,2.45
		H17.64z M17.66,17.8c0-0.65-0.45-0.98-1.19-0.98h-1.5v1.97h1.53c0.73,0,1.16-0.39,1.16-0.97L17.66,17.8L17.66,17.8z"/>
	<polygon points="20.55,22.31 20.55,15.45 25.73,15.45 25.73,16.8 22.05,16.8 22.05,18.19 25.29,18.19 25.29,19.53 22.05,19.53 
		22.05,20.97 25.78,20.97 25.78,22.31 	"/>
	<path d="M32.22,22.31l-0.63-1.54h-2.9l-0.63,1.54h-1.54l2.94-6.91h1.39l2.94,6.91H32.22z M30.15,17.22l-0.91,2.22h1.82L30.15,17.22
		z"/>
	<polygon points="40.22,22.31 40.22,17.83 38.29,20.76 38.25,20.76 36.34,17.86 36.34,22.31 34.86,22.31 34.86,15.45 36.48,15.45 
		38.29,18.35 40.09,15.45 41.71,15.45 41.71,22.31 	"/>
</g>
<path d="M47.76,17.55v1.91h-1.24L47.76,17.55z M47.76,16.81l-1.86,2.67v0.51h1.86v0.89h0.63v-0.9h0.55v-0.54H48.4v-2.63L47.76,16.81
	L47.76,16.81z M51.9,16.81l-1.64,1.95v-1.95h-0.66v4.07h0.65v-1.52l0.4-0.33l1.28,1.85h0.78l-1.58-2.28l1.53-1.79L51.9,16.81
	L51.9,16.81z M44.95,21.24v-4.86c0-0.29,0.24-0.52,0.52-0.52h7.91c0.29,0,0.53,0.24,0.53,0.52v4.86c0,0.29-0.24,0.53-0.53,0.53
	h-7.91C45.18,21.76,44.95,21.53,44.95,21.24 M45.47,15.3c-0.6,0-1.08,0.49-1.08,1.08v4.86c0,0.6,0.49,1.08,1.08,1.08h7.91
	c0.6,0,1.08-0.49,1.08-1.08v-4.86c0-0.6-0.49-1.08-1.08-1.08H45.47z"/>
</svg>
