<svg width="22px" height="22px" xmlns="http://www.w3.org/2000/svg" xmlns:xlink="http://www.w3.org/1999/xlink" viewBox="0 0 22 22" version="1.1" >
    <title>C089EA50-334E-418D-9014-A1A8191FEDE7</title>
    <g id="Desktop-Design" stroke="none" strokeWidth="1" fill="none" fillRule="evenodd">
      <g id="9.0---Cart---Create-Account---Warning-Account-Already-Exist" transform="translate(-255.000000, -89.000000)">
        <g id="3.-Views/Banner/Status/Warning" transform="translate(235.000000, 73.000000)">
          <g id="Warning" transform="translate(20.000000, 16.000000)">
            <path d="M21.5764655,16.8309184 L13.2230298,2.4954809 C12.7650045,1.71011069 11.9120605,1.22222222 10.9969646,1.22222222 C10.0818687,1.22222222 9.22892475,1.71011069 8.77089944,2.4954809 L0.342802971,16.9580018 C-0.114267657,17.743372 -0.114267657,18.7191489 0.342802971,19.5045191 C0.800828278,20.2898893 1.6537722,20.7777778 2.56886814,20.7777778 L19.4297121,20.7777778 C20.846822,20.7777778 22,19.6352646 22,18.2312604 C21.9990439,17.7310517 21.8536992,17.2469466 21.5763921,16.8310639 L21.5764655,16.8309184 Z" id="Triangle" fill="#D07800" fillRule="nonzero" />
            <g id="Exclamation" transform="translate(10.388889, 7.944444)" fill="#F5F5F6">
              <rect id="Rectangle" x="0" y="0" width="1.83333333" height="6.11111111" />
              <rect id="Rectangle" x="0" y="7.94444444" width="1.83333333" height="1.83333333" />
            </g>
          </g>
        </g>
      </g>
    </g>
</svg>