<?xml version="1.0" encoding="UTF-8"?>
<svg width="47px" height="34px" viewBox="0 0 47 34" version="1.1" xmlns="http://www.w3.org/2000/svg" xmlns:xlink="http://www.w3.org/1999/xlink">
    <title>XBox@3x</title>
    <g id="High-Fidelity-" stroke="none" stroke-width="1" fill="none" fill-rule="evenodd">
        <g id="Icons---Dark" transform="translate(-156.000000, -517.000000)" fill="#171725" fill-rule="nonzero">
            <g id="Group" transform="translate(131.253141, 517.000000)">
                <g id="Group" transform="translate(24.685150, -0.000000)">
                    <path d="M11.6835627,33.7542021 L9.54026935,33.7542021 L5.85485023,28.9611422 L2.14329339,33.7542021 L0,33.7542021 L4.75706581,27.5846738 L0.392065864,21.9067414 L2.53535925,21.9067414 L5.85485023,26.2082053 L9.17434121,21.9067414 L11.3176346,21.9067414 L6.92649693,27.5846738 L11.6835627,33.7542021 Z M22.8182333,30.3867703 C22.8182333,31.4191216 22.4523051,32.2548346 21.7204489,32.8447497 C20.9885926,33.4346647 19.9430836,33.7542021 18.5839219,33.7542021 L12.702934,33.7542021 L12.702934,28.4695464 L9.88005977,28.4695464 L11.0562574,26.9455991 L12.702934,26.9455991 L12.702934,21.9067414 L18.3486824,21.9067414 C19.6294309,21.9067414 20.5965267,22.2016989 21.2761075,22.7670342 C21.9556884,23.3323694 22.2954788,24.094343 22.2954788,25.0037954 C22.2954788,26.1344659 21.7465866,27.0193385 20.6488022,27.5846738 C21.3545207,27.8304717 21.8772752,28.2237484 22.2432033,28.6907645 C22.6352692,29.1577806 22.8182333,29.7476956 22.8182333,30.3867703 Z M14.6109879,26.9701789 L18.2179938,26.9701789 C18.9498501,26.9701789 19.4987423,26.8227002 19.8646704,26.5031628 C20.2305986,26.2082053 20.4135626,25.7411892 20.4135626,25.1266944 C20.4135626,24.6105187 20.2305986,24.1926622 19.8385327,23.8977047 C19.4726046,23.6027472 18.9237124,23.4552684 18.2179938,23.4552684 L14.6109879,23.4552684 L14.6109879,26.9701789 L14.6109879,26.9701789 Z M20.8840417,30.3376107 C20.8840417,29.7231159 20.6749399,29.23152 20.282874,28.9365624 C19.8908082,28.6170251 19.2896405,28.4695464 18.5055088,28.4695464 L14.6109879,28.4695464 L14.6109879,32.1810952 L18.479371,32.1810952 C19.237365,32.1810952 19.8385327,32.0090367 20.2567363,31.7140792 C20.6749399,31.3945418 20.8840417,30.9275258 20.8840417,30.3376107 L20.8840417,30.3376107 Z M35.7825445,27.8304717 C35.7825445,28.7399241 35.6518559,29.6002169 35.3643409,30.3376107 C35.0768259,31.0750045 34.6586224,31.738659 34.1097301,32.3039942 C33.5347002,32.8693295 32.8812571,33.3117658 32.1494008,33.5821435 C31.4175445,33.877101 30.5811374,34 29.6401793,34 C28.725359,34 27.8628141,33.8525212 27.1309578,33.5821435 C26.3991015,33.287186 25.7456584,32.8693295 25.1706285,32.3039942 C24.5955985,31.738659 24.1773949,31.0750045 23.88988,30.3376107 C23.602365,29.6002169 23.4716764,28.7399241 23.4716764,27.8304717 C23.4716764,26.9210193 23.602365,26.0607265 23.88988,25.3233327 C24.1773949,24.5859389 24.5955985,23.8977047 25.1706285,23.3323694 C25.7195207,22.7670342 26.3729638,22.3491777 27.1309578,22.0542201 C27.8628141,21.7838424 28.725359,21.6363636 29.6401793,21.6363636 C30.5549996,21.6363636 31.3914068,21.7838424 32.1494008,22.0542201 C32.8812571,22.3245979 33.5608379,22.7670342 34.1097301,23.3323694 C34.6586224,23.8977047 35.1029637,24.5859389 35.3643409,25.3233327 C35.6257182,26.0607265 35.7825445,26.8964395 35.7825445,27.8304717 Z M25.4581434,27.8304717 C25.4581434,29.23152 25.8502093,30.3376107 26.6082033,31.1487439 C27.3661973,31.9598771 28.3594308,32.3777336 29.6401793,32.3777336 C30.8947901,32.3777336 31.9141613,31.9598771 32.6721553,31.1487439 C33.4301493,30.3376107 33.7960775,29.23152 33.7960775,27.8304717 C33.7960775,26.4294235 33.4301493,25.2987529 32.6721553,24.4876197 C31.9141613,23.6764865 30.8947901,23.25863 29.6401793,23.25863 C28.3855685,23.25863 27.3661973,23.6764865 26.6082033,24.4876197 C25.8502093,25.3233327 25.4581434,26.4294235 25.4581434,27.8304717 Z M41.8464965,27.5846738 L46.2376342,21.9067414 L44.0943408,21.9067414 L40.7748498,26.2082053 L37.4553589,21.9067414 L35.3120655,21.9067414 L39.7032031,27.5846738 L34.9461373,33.7542021 L37.0894307,33.7542021 L40.7748498,28.9611422 L44.4864067,33.7542021 L46.6297001,33.7542021 L41.8464965,27.5846738 Z" id="Shape"></path>
                    <path d="M22.9058176,7.74651874 C22.9058176,7.74651874 22.9323384,7.74651874 22.9058176,7.74651874 C26.1148353,9.9598098 31.5516009,15.3968074 29.9073108,16.9364882 C28.0243335,18.4280539 25.5844191,19.3181818 22.9058176,19.3181818 C20.227216,19.3181818 17.7607809,18.4280539 15.9043244,16.9364882 C14.2335135,15.3968074 19.6967998,9.9598098 22.8792968,7.77057625 C22.8792968,7.74651874 22.9058176,7.74651874 22.9058176,7.74651874 Z M28.4486664,1.41939318 C26.8308971,0.529265255 25.054003,0 22.9058176,0 C20.7576322,0 18.980738,0.529265255 17.3629688,1.41939318 C17.336448,1.41939318 17.336448,1.4434507 17.336448,1.46750821 C17.336448,1.49156572 17.3629688,1.49156572 17.3894896,1.49156572 C19.4581126,1.08258802 22.5875679,2.6944413 22.8792968,2.86284388 L22.9058176,2.86284388 L22.9323384,2.86284388 C23.2240673,2.6944413 26.3535226,1.08258802 28.4221456,1.49156572 C28.4486664,1.49156572 28.4751872,1.49156572 28.4751872,1.46750821 C28.4751872,1.4434507 28.4751872,1.41939318 28.4486664,1.41939318 L28.4486664,1.41939318 Z M15.4534706,2.76661383 C15.4269498,2.76661383 15.4269498,2.79067135 15.400429,2.79067135 C13.46441,4.54686969 12.2709737,6.97667837 12.2709737,9.64706215 C12.2709737,11.8362957 13.0931187,13.8811842 14.4456799,15.4930375 C14.4456799,15.517095 14.4722007,15.517095 14.4987215,15.517095 C14.5252424,15.517095 14.5252424,15.4930375 14.4987215,15.46898 C13.6765765,13.1835164 17.8403433,7.6743462 19.9885287,5.36482509 L20.0150495,5.34076758 C20.0150495,5.31671006 20.0150495,5.31671006 19.9885287,5.31671006 C16.7264694,2.38169365 15.6391163,2.6944413 15.4534706,2.76661383 Z M25.8231064,5.29265255 L25.7965856,5.31671006 C25.7965856,5.31671006 25.7965856,5.34076758 25.8231064,5.34076758 C27.9712918,7.65028869 32.1085378,13.1594588 31.3129136,15.4449224 L31.3129136,15.4930375 C31.3394344,15.4930375 31.3659552,15.4930375 31.3659552,15.46898 C32.7185164,13.8571267 33.5406614,11.8122382 33.5406614,9.62300464 C33.5406614,6.95262085 32.3472251,4.52281218 30.3846853,2.76661383 C30.3581645,2.74255632 30.3581645,2.74255632 30.3316437,2.74255632 C30.1725189,2.6944413 29.0851658,2.38169365 25.8231064,5.29265255 Z" id="Shape"></path>
                </g>
            </g>
        </g>
    </g>
</svg>