<svg id="Layer_1" data-name="Layer 1" xmlns="http://www.w3.org/2000/svg" viewBox="0 0 458.04 154.52"><title>Xfinity_logo_2017_blk_RGB</title><path d="M51.19,78.05,80,39.5h-12c-5.37,0-8.85,1.9-11.69,5.69L41.08,65.57,26.39,45.19c-2.85-3.79-6.32-5.69-11.7-5.69h-12L31.13,78.05,0,120.08H11.38c5.37,0,8.84-1.9,11.69-5.69l18-23.86,42.19,58.31c2.68,3.79,6.32,5.68,11.69,5.68h12.32Zm230.21,42h16.27V39.5H281.4Zm-129.09,0h16.28V39.5H152.31Zm246.8,28.44L458,39.5h-8.85c-5.37,0-9.48,1.58-11.69,5.69L414.28,88.32,394.21,45.19c-2-4.27-6.32-5.69-11.69-5.69H374l31,65.73-27,49.29h8.84C392.31,154.52,396.74,152.79,399.11,148.52ZM188,39.5v80.58h16.27V64.78c5.06-7.11,12.33-11.53,21.33-11.53,12,0,20.23,7.58,20.23,22.75v36.34a7.34,7.34,0,0,0,7.58,7.74h8.69V73.15c0-20.85-13.27-35.39-32.55-35.39a36.33,36.33,0,0,0-25.28,9.64V39.5Zm139.83,52c0,17.54,10.74,30,30,30a41.29,41.29,0,0,0,11.85-1.58L366.4,105.7a33,33,0,0,1-7.42.79c-7.9,0-14.86-4.26-14.86-15.32V54h22.76L360.24,39.5H344.12V7.11l-16.27,7.11V39.5H310.63V54h17.22ZM102.23,54v66H118.5V54h20.86V39.5H118.5v-6c0-13.75,8.22-18.33,16.27-18.33a19.2,19.2,0,0,1,5.53.79l3.32-14.38A28.42,28.42,0,0,0,133.51,0c-20.22,0-31.28,15-31.28,33.18V39.5H93.69L83.42,54Z"/></svg>